STARTFONT 2.3
FONT -FontForge-Butcherman-Book-R-Normal--16-160-72-72-P-86-ISO10646-1
SIZE 16 72 72  2
FONTBOUNDINGBOX 25 31 -2 -11
COMMENT "Generated by fontforge, http://fontforge.sourceforge.net"
COMMENT "Copyright (c) 2011, Typomondo, with Reserved Font Name  "Butcherman"."
STARTPROPERTIES 41
FOUNDRY "FontForge"
FAMILY_NAME "Butcherman"
WEIGHT_NAME "Book"
SLANT "R"
SETWIDTH_NAME "Normal"
ADD_STYLE_NAME ""
PIXEL_SIZE 16
POINT_SIZE 160
RESOLUTION_X 72
RESOLUTION_Y 72
SPACING "P"
AVERAGE_WIDTH 86
CHARSET_REGISTRY "ISO10646"
CHARSET_ENCODING "1"
FONTNAME_REGISTRY ""
CHARSET_COLLECTIONS "ISO8859-2 ISO8859-9 ISO8859-4 ISO10646-1"
BITS_PER_PIXEL 2
FONT_NAME "Butcherman-Regular"
FACE_NAME "Butcherman Regular"
COPYRIGHT "Copyright (c) 2011, Typomondo, with Reserved Font Name  "Butcherman"."
FONT_VERSION "001.004"
FONT_ASCENT 13
FONT_DESCENT 3
UNDERLINE_POSITION -2
UNDERLINE_THICKNESS 1
X_HEIGHT 11
CAP_HEIGHT 11
DEFAULT_CHAR 3
RAW_ASCENT 799
RAW_DESCENT 200
NORM_SPACE 3
RELATIVE_WEIGHT 40
RELATIVE_SETWIDTH 50
SUPERSCRIPT_X 0
SUPERSCRIPT_Y 5
SUPERSCRIPT_SIZE 9
SUBSCRIPT_X 0
SUBSCRIPT_Y 1
SUBSCRIPT_SIZE 9
AVG_LOWERCASE_WIDTH 94
AVG_UPPERCASE_WIDTH 88
ENDPROPERTIES
CHARS 331
STARTCHAR NULL.dup1
ENCODING 0
SWIDTH 161 0
DWIDTH 3 0
BBX 1 1 0 0
BITMAP
00
ENDCHAR
STARTCHAR CR
ENCODING 13
SWIDTH 161 0
DWIDTH 3 0
BBX 1 1 0 0
BITMAP
00
ENDCHAR
STARTCHAR space
ENCODING 32
SWIDTH 161 0
DWIDTH 3 0
BBX 1 1 0 0
BITMAP
00
ENDCHAR
STARTCHAR exclam
ENCODING 33
SWIDTH 350 0
DWIDTH 6 0
BBX 5 20 0 0
BITMAP
1A40
BFC0
7F80
3F80
3F40
3F40
2F00
1F00
1F00
1F00
1F00
1F00
0600
0000
5A80
7F80
3FC0
3FC0
3FC0
1000
ENDCHAR
STARTCHAR quotedbl
ENCODING 34
SWIDTH 541 0
DWIDTH 9 0
BBX 7 6 1 6
BITMAP
A9A8
F8F8
F8B8
B8B4
B474
7470
ENDCHAR
STARTCHAR numbersign
ENCODING 35
SWIDTH 583 0
DWIDTH 9 0
BBX 9 15 0 -2
BITMAP
004140
018280
028340
064700
2FFFC0
2FFF80
1BAE40
0D1C00
0C2800
6D7900
FFFD00
7AB800
306000
609000
104000
ENDCHAR
STARTCHAR dollar
ENCODING 36
SWIDTH 534 0
DWIDTH 9 0
BBX 8 20 0 -4
BITMAP
0040
01C0
01C0
01C0
02E0
1FFD
3FFF
7FFF
7FFE
7F7E
7F55
2FF4
07FC
157D
2FBC
1FF4
05D0
0180
0180
0180
ENDCHAR
STARTCHAR percent
ENCODING 37
SWIDTH 828 0
DWIDTH 13 0
BBX 13 14 0 -1
BITMAP
00004000
1502C000
7F438000
7F834000
7B834000
73871A00
774A2F40
3F1D2F80
042C2F80
00383B80
00343B40
00301A00
00A00000
00900000
ENDCHAR
STARTCHAR ampersand
ENCODING 38
SWIDTH 522 0
DWIDTH 8 0
BBX 8 8 0 2
BITMAP
03D0
03D0
17E5
7FFE
7FFE
17E5
03D0
03D0
ENDCHAR
STARTCHAR quotesingle
ENCODING 39
SWIDTH 300 0
DWIDTH 5 0
BBX 3 6 1 6
BITMAP
A8
FC
F8
B8
B8
74
ENDCHAR
STARTCHAR parenleft
ENCODING 40
SWIDTH 372 0
DWIDTH 6 0
BBX 6 16 0 -2
BITMAP
0050
02E0
0BD0
1FD0
2FD0
3FC0
7F00
7E00
7D00
7D00
7D00
3E00
2F40
1FC0
0BC0
0280
ENDCHAR
STARTCHAR parenright
ENCODING 41
SWIDTH 338 0
DWIDTH 5 0
BBX 5 15 0 -2
BITMAP
BD00
7F00
7F80
7F80
7F80
1F80
0B80
0B80
0B40
0B40
0B40
0F00
1E00
7C00
B400
ENDCHAR
STARTCHAR asterisk
ENCODING 42
SWIDTH 513 0
DWIDTH 8 0
BBX 8 10 0 3
BITMAP
0020
0D34
0EB0
0BE0
6BFA
7FFE
07E0
07B0
0E74
0100
ENDCHAR
STARTCHAR plus
ENCODING 43
SWIDTH 458 0
DWIDTH 7 0
BBX 7 8 0 2
BITMAP
0100
0780
1B80
7FF8
7FF8
1B80
0780
0100
ENDCHAR
STARTCHAR comma
ENCODING 44
SWIDTH 361 0
DWIDTH 6 0
BBX 5 9 0 -3
BITMAP
1540
3FC0
7FC0
7FC0
7FC0
17C0
0380
0380
0100
ENDCHAR
STARTCHAR hyphen
ENCODING 45
SWIDTH 478 0
DWIDTH 8 0
BBX 6 4 1 4
BITMAP
AA90
FFD0
FFD0
1540
ENDCHAR
STARTCHAR period
ENCODING 46
SWIDTH 374 0
DWIDTH 6 0
BBX 4 6 1 0
BITMAP
5A
FF
FF
BF
BF
40
ENDCHAR
STARTCHAR slash
ENCODING 47
SWIDTH 291 0
DWIDTH 5 0
BBX 5 15 0 -2
BITMAP
0140
0240
0740
0700
0A00
0D00
1C00
2C00
3800
3400
3000
6000
9000
C000
4000
ENDCHAR
STARTCHAR zero
ENCODING 48
SWIDTH 528 0
DWIDTH 8 0
BBX 8 13 0 -1
BITMAP
06A0
2FF8
3FFE
7FFE
7FFE
3EBE
3D7E
3D7E
3D7D
2D7C
2FB8
1BF4
01D0
ENDCHAR
STARTCHAR one
ENCODING 49
SWIDTH 366 0
DWIDTH 6 0
BBX 5 12 0 0
BITMAP
0680
BFC0
BFC0
1FC0
0FC0
0F80
0F80
0F80
0B80
0B80
0B80
0640
ENDCHAR
STARTCHAR two
ENCODING 50
SWIDTH 575 0
DWIDTH 9 0
BBX 9 14 0 -2
BITMAP
07E000
2FFD00
3FFE00
3FFF00
3FFF00
3FBE00
3E7E00
00BD00
00FC00
02F440
2BFFC0
3FFF80
7E9640
000100
ENDCHAR
STARTCHAR three
ENCODING 51
SWIDTH 517 0
DWIDTH 8 0
BBX 8 13 0 -1
BITMAP
0A90
3FF4
7FFC
7FFD
7FFD
3EBD
29BD
02FC
01BC
013D
0F7D
0BF8
02A4
ENDCHAR
STARTCHAR four
ENCODING 52
SWIDTH 466 0
DWIDTH 7 0
BBX 7 16 0 -4
BITMAP
2AA8
1FD0
2FC0
2F80
2F40
3F40
2F10
2EF4
3EB0
3EB4
7FFC
7FFC
01B8
0060
0060
0010
ENDCHAR
STARTCHAR five
ENCODING 53
SWIDTH 583 0
DWIDTH 9 0
BBX 9 13 0 -1
BITMAP
3FEA80
3FFF80
3FFF80
7FFF80
3FFF40
3EBF40
3E0000
3FFC00
1ABC00
013D00
0FBC00
0BF800
02A400
ENDCHAR
STARTCHAR six
ENCODING 54
SWIDTH 582 0
DWIDTH 9 0
BBX 9 13 0 -1
BITMAP
0AA400
2FFE00
7FFF40
7FFF80
7FFF80
3FBF40
3E2F00
2E5600
1FFE00
1F1F00
1F5F00
0FFF00
07FE00
ENDCHAR
STARTCHAR seven
ENCODING 55
SWIDTH 624 0
DWIDTH 10 0
BBX 10 14 0 -2
BITMAP
6ABFE0
BFFFE0
7FFFD0
7FFFC0
3FFF80
3FAF40
001F00
002E00
003D00
007800
00B400
01F000
02E000
014000
ENDCHAR
STARTCHAR eight
ENCODING 56
SWIDTH 459 0
DWIDTH 7 0
BBX 7 13 0 -1
BITMAP
1BA0
7FF8
7FF8
7FF8
3FF4
3DF4
2DB0
1FE0
1FE0
1CE0
1DE0
1FE0
0680
ENDCHAR
STARTCHAR nine
ENCODING 57
SWIDTH 584 0
DWIDTH 9 0
BBX 9 14 0 -2
BITMAP
02A400
0FFE00
2FFF40
7FFF40
7FFF80
7F7F80
3F6F80
2FFF40
0ABF00
1A2E00
2F7D00
1FF800
055400
004000
ENDCHAR
STARTCHAR colon
ENCODING 58
SWIDTH 386 0
DWIDTH 6 0
BBX 5 14 1 0
BITMAP
5900
FF00
BF00
FF40
BF40
5000
0000
0000
6A00
FF00
FF00
FF00
BF00
5000
ENDCHAR
STARTCHAR semicolon
ENCODING 59
SWIDTH 375 0
DWIDTH 6 0
BBX 5 17 0 -3
BITMAP
1640
7FC0
3FC0
3FC0
3FC0
1400
0000
0000
1540
3FC0
3FC0
3FC0
3FC0
16C0
0380
0380
0140
ENDCHAR
STARTCHAR less
ENCODING 60
SWIDTH 459 0
DWIDTH 7 0
BBX 7 9 0 1
BITMAP
06A8
0BF0
1FD0
7F80
7F00
3F80
1FD0
07F4
01B8
ENDCHAR
STARTCHAR equal
ENCODING 61
SWIDTH 485 0
DWIDTH 8 0
BBX 6 6 1 4
BITMAP
AA90
FFE0
1500
9650
FFE0
1540
ENDCHAR
STARTCHAR greater
ENCODING 62
SWIDTH 432 0
DWIDTH 7 0
BBX 7 9 0 1
BITMAP
6B40
2F80
0FD0
07F0
03F4
07F0
0FC0
7F80
6A00
ENDCHAR
STARTCHAR question
ENCODING 63
SWIDTH 577 0
DWIDTH 9 0
BBX 7 15 1 -2
BITMAP
0540
7FE0
FFF8
FFFC
FFFC
F9FC
55F8
02F4
03E0
03C0
0100
0540
0F80
0B80
0A40
ENDCHAR
STARTCHAR at
ENCODING 64
SWIDTH 930 0
DWIDTH 15 0
BBX 15 18 0 -4
BITMAP
001A9000
00FFF400
03E56E00
0A1A9B40
1CBFF7C0
28FFF6E0
34FFF1F0
74BEF1F4
7078E0F4
7456E0F4
7479F0B4
7879F8B0
3C7FFFE0
2D2A8B80
0F000000
07D05000
01FFF000
00154000
ENDCHAR
STARTCHAR A
ENCODING 65
SWIDTH 494 0
DWIDTH 8 0
BBX 7 15 0 -3
BITMAP
5A94
2FF8
1FF4
1FF0
1FF0
1FF0
1EF0
1EF0
1DB0
1FF0
1FE0
1EE0
1C90
0450
0040
ENDCHAR
STARTCHAR B
ENCODING 66
SWIDTH 517 0
DWIDTH 8 0
BBX 8 13 0 -1
BITMAP
5AE8
3FFE
1FFE
1FFE
1FFD
1F7D
0F6C
0FF8
0FF8
0F38
0B78
0BF8
0560
ENDCHAR
STARTCHAR C
ENCODING 67
SWIDTH 504 0
DWIDTH 8 0
BBX 8 14 0 -2
BITMAP
06E4
2FFC
7FFE
BFFE
7FFE
7FBE
7E3D
3E00
3E00
2E7C
1FB8
1FF4
0190
0140
ENDCHAR
STARTCHAR D
ENCODING 68
SWIDTH 522 0
DWIDTH 8 0
BBX 8 14 0 -2
BITMAP
16A4
7FFD
3FFF
2FFF
1FFF
1FAF
1F5E
1F1D
0F5D
0F6C
0BFC
0AF8
08A0
0440
ENDCHAR
STARTCHAR E
ENCODING 69
SWIDTH 570 0
DWIDTH 9 0
BBX 9 13 0 -1
BITMAP
6AA940
3FFF00
2FFF00
1FFE00
1FFD00
1F5800
1F5000
0FF400
0FF400
0F0000
0BF800
0AF400
054400
ENDCHAR
STARTCHAR F
ENCODING 70
SWIDTH 559 0
DWIDTH 9 0
BBX 8 13 0 -1
BITMAP
6AA9
3FFF
1FFE
0FFD
0FFD
0FED
0B94
0BFC
0BE8
0B80
0B80
0BC0
0640
ENDCHAR
STARTCHAR G
ENCODING 71
SWIDTH 499 0
DWIDTH 8 0
BBX 8 13 0 -1
BITMAP
0690
3FF8
7FFD
7FFE
7FFE
7EBD
3D7D
3D54
2DBD
2D7D
1E7C
0FFC
05A4
ENDCHAR
STARTCHAR H
ENCODING 72
SWIDTH 726 0
DWIDTH 12 0
BBX 10 13 1 -1
BITMAP
1A5A90
FF1FE0
BF1FD0
7E1FC0
7E1F80
3E1F40
3E6F40
2FFF00
2FBF00
2E2E00
1F3E00
1F3D00
142900
ENDCHAR
STARTCHAR I
ENCODING 73
SWIDTH 401 0
DWIDTH 6 0
BBX 6 13 0 -1
BITMAP
7AA0
3FD0
1FC0
0FD0
1FC0
1FC0
0F80
0F80
0F80
0B80
0B80
0680
0540
ENDCHAR
STARTCHAR J
ENCODING 74
SWIDTH 455 0
DWIDTH 7 0
BBX 8 13 -1 -1
BITMAP
01A9
01FD
00FC
00F8
00F8
00F8
00F4
00F4
68F0
3CF0
3EE0
2ED0
0140
ENDCHAR
STARTCHAR K
ENCODING 75
SWIDTH 580 0
DWIDTH 9 0
BBX 9 13 0 -1
BITMAP
6A5940
3F6F40
1F6D00
0FB800
0FF400
0BF400
0BF800
0BF800
07F800
07B800
076C00
035D00
014400
ENDCHAR
STARTCHAR L
ENCODING 76
SWIDTH 416 0
DWIDTH 7 0
BBX 7 13 0 -1
BITMAP
6A90
3F80
3F40
2F40
2F40
2F40
1F40
1F40
0F40
0F80
0FFC
0BF8
0568
ENDCHAR
STARTCHAR M
ENCODING 77
SWIDTH 740 0
DWIDTH 12 0
BBX 11 13 0 -1
BITMAP
6BCBE4
3FDBF8
2FEFF4
1FFFF0
1FFFF0
0FFFF0
0FFFF0
0FBEF0
0BBEE0
0BBAE0
07AAD0
065690
010000
ENDCHAR
STARTCHAR N
ENCODING 78
SWIDTH 610 0
DWIDTH 10 0
BBX 9 14 0 -2
BITMAP
2A5A40
7F9F80
2FDF40
2FEF00
1FFF00
1FFF00
1FFE00
0FFE00
0BBE00
0B7E00
0B7D00
0B6D00
066900
045400
ENDCHAR
STARTCHAR O
ENCODING 79
SWIDTH 504 0
DWIDTH 8 0
BBX 8 14 0 -2
BITMAP
0690
2FFC
7FFE
BFFE
7FFE
7EBE
3D7E
3D7E
3D7D
2E7C
2FB8
1FF4
02A0
0040
ENDCHAR
STARTCHAR P
ENCODING 80
SWIDTH 545 0
DWIDTH 9 0
BBX 9 13 0 -1
BITMAP
6AA900
2FFF00
1FFF40
1FFF00
0FFF00
0F9F00
0B8F00
0BDE00
07FD00
07D400
07C000
07C000
018000
ENDCHAR
STARTCHAR Q
ENCODING 81
SWIDTH 520 0
DWIDTH 8 0
BBX 8 14 0 -2
BITMAP
02A0
2FFC
3FFE
BFFF
BFFF
7F3F
7F2E
3F2E
2F2E
2F7E
0FFD
07FE
01AE
0008
ENDCHAR
STARTCHAR R
ENCODING 82
SWIDTH 599 0
DWIDTH 10 0
BBX 10 13 0 -1
BITMAP
1AA900
7FFF80
1FFFD0
0FFFD0
0FFFD0
0FCBC0
0BCBC0
07FF80
07FF40
03DF00
03CF40
03CF40
014640
ENDCHAR
STARTCHAR S
ENCODING 83
SWIDTH 504 0
DWIDTH 8 0
BBX 8 13 0 -1
BITMAP
06A0
2FFD
3FFE
7FFE
BFFE
BEBE
7E55
3FF4
0BFC
157C
3EBC
1FF4
0590
ENDCHAR
STARTCHAR T
ENCODING 84
SWIDTH 622 0
DWIDTH 10 0
BBX 9 14 1 -2
BITMAP
6AA500
FFFF40
BFFE00
7FFE00
7FFE00
7FE900
03D000
03E000
03D000
03D000
03D000
03D000
03D000
014000
ENDCHAR
STARTCHAR U
ENCODING 85
SWIDTH 637 0
DWIDTH 10 0
BBX 10 13 0 -1
BITMAP
6A4A40
2F4FD0
2F4FC0
2F8F80
1F9F40
1F9F40
0F5F00
0F5F00
0F9F00
0FAE00
0BFE00
07A800
010400
ENDCHAR
STARTCHAR V
ENCODING 86
SWIDTH 570 0
DWIDTH 9 0
BBX 9 13 0 -1
BITMAP
6A1A80
2F2F40
1F3F00
1F3E00
1F7D00
1F7C00
0FBC00
0FB800
0FF400
0BF000
07F000
07E000
03D000
ENDCHAR
STARTCHAR W
ENCODING 87
SWIDTH 777 0
DWIDTH 12 0
BBX 12 12 0 0
BITMAP
065C69
7F6DBE
1FAEF8
0BBFF4
0BFFE0
07FFD0
02FFD0
01FFC0
00FBC0
00FB80
00A740
006700
ENDCHAR
STARTCHAR X
ENCODING 88
SWIDTH 587 0
DWIDTH 9 0
BBX 9 13 0 -1
BITMAP
5A5940
2F6F80
0BBD00
07FC00
03F800
02F400
02F400
01F000
02F000
02F400
03B400
037800
061400
ENDCHAR
STARTCHAR Y
ENCODING 89
SWIDTH 688 0
DWIDTH 11 0
BBX 11 13 0 -1
BITMAP
6A8250
1FD7F8
07EBD0
01FF80
00FF00
007F00
003F00
002E00
002E00
001E00
001E00
001E00
000400
ENDCHAR
STARTCHAR Z
ENCODING 90
SWIDTH 695 0
DWIDTH 11 0
BBX 11 13 0 -1
BITMAP
1AAA50
7FFFF8
2FFFF0
1FFFE0
0FFFC0
0E7F40
047D00
00F800
00F000
02E400
03FE00
07FD00
000400
ENDCHAR
STARTCHAR bracketleft
ENCODING 91
SWIDTH 410 0
DWIDTH 7 0
BBX 6 15 1 -1
BITMAP
AA80
FFC0
FFC0
F940
F400
F400
F400
F400
F400
F800
F800
F800
BE90
BB80
4100
ENDCHAR
STARTCHAR backslash
ENCODING 92
SWIDTH 292 0
DWIDTH 5 0
BBX 5 14 0 -1
BITMAP
4000
A000
B000
7000
3400
2800
1C00
0D00
0E00
0A00
0600
0300
0240
0180
ENDCHAR
STARTCHAR bracketright
ENCODING 93
SWIDTH 407 0
DWIDTH 7 0
BBX 6 15 0 -1
BITMAP
6A90
BFD0
BFD0
5BD0
03D0
03D0
03D0
02D0
02E0
02E0
03D0
03D0
ABD0
BFD0
0450
ENDCHAR
STARTCHAR asciicircum
ENCODING 94
SWIDTH 523 0
DWIDTH 8 0
BBX 8 6 0 11
BITMAP
0BE0
0FF4
1FB8
3E3D
7C2E
1404
ENDCHAR
STARTCHAR underscore
ENCODING 95
SWIDTH 452 0
DWIDTH 7 0
BBX 7 3 0 -1
BITMAP
7FF4
7FF4
1550
ENDCHAR
STARTCHAR grave
ENCODING 96
SWIDTH 444 0
DWIDTH 7 0
BBX 5 4 1 12
BITMAP
3400
7D00
BF80
0180
ENDCHAR
STARTCHAR a
ENCODING 97
SWIDTH 479 0
DWIDTH 8 0
BBX 8 14 0 -2
BITMAP
6BFD
2FF8
1FF8
1FF4
1FF4
1FF4
1FF4
1EB4
1EB4
1EB4
1FF4
1EB4
1D70
0400
ENDCHAR
STARTCHAR b
ENCODING 98
SWIDTH 610 0
DWIDTH 10 0
BBX 10 13 0 -1
BITMAP
16AA40
7FFFC0
2FFFD0
0FFFD0
0FFFD0
0BDBC0
0BCB80
0BEF40
07FE00
07DF40
03CB40
03EF00
02AE00
ENDCHAR
STARTCHAR c
ENCODING 99
SWIDTH 534 0
DWIDTH 9 0
BBX 8 13 0 -1
BITMAP
06E4
2FFE
7FFF
BFFF
BFFF
7FBF
3F2F
3F05
2F00
2F2C
1FBC
0FF8
0560
ENDCHAR
STARTCHAR d
ENCODING 100
SWIDTH 573 0
DWIDTH 9 0
BBX 8 14 1 -2
BITMAP
6A90
FFF8
FFFE
BFFF
7FFF
3FFE
2F3E
2E2D
1E2C
1E38
1F78
1FF4
0EF0
0440
ENDCHAR
STARTCHAR e
ENCODING 101
SWIDTH 632 0
DWIDTH 10 0
BBX 10 13 0 -1
BITMAP
1AAA50
7FFFD0
2FFF80
1FFF40
1FFF40
0FEB00
0FC000
0BFD00
0BFD00
07D400
07E900
03FD00
015500
ENDCHAR
STARTCHAR f
ENCODING 102
SWIDTH 559 0
DWIDTH 9 0
BBX 8 13 0 -1
BITMAP
6AA9
2FFF
1FFE
0FFD
0FFD
0FED
0B94
0BF8
0BE8
0B80
0B80
0B80
0640
ENDCHAR
STARTCHAR g
ENCODING 103
SWIDTH 546 0
DWIDTH 9 0
BBX 9 13 0 -1
BITMAP
0AA400
2FFE00
7FFF00
7FFF40
7FFF40
7FBF40
3E3F00
3E1600
2E7A00
1F7E00
1F6E00
0FFE00
07FD00
ENDCHAR
STARTCHAR h
ENCODING 104
SWIDTH 730 0
DWIDTH 12 0
BBX 10 13 1 -1
BITMAP
5B5FA0
BF0FE0
BF0FD0
7F1FC0
7F1F80
3E1F80
2FAF40
2FFF00
2F6F00
2F2E00
1F2E00
1F3D00
141900
ENDCHAR
STARTCHAR i
ENCODING 105
SWIDTH 412 0
DWIDTH 7 0
BBX 6 13 0 -1
BITMAP
6AA0
3FE0
1FD0
0FC0
0FC0
0F80
0F80
0F80
0B80
0B80
0B40
0740
0040
ENDCHAR
STARTCHAR j
ENCODING 106
SWIDTH 458 0
DWIDTH 7 0
BBX 7 13 0 -1
BITMAP
0A94
0BF4
07F4
03F0
03F0
03F0
03E0
03E0
B3E0
F7E0
BFD0
7FC0
0140
ENDCHAR
STARTCHAR k
ENCODING 107
SWIDTH 636 0
DWIDTH 10 0
BBX 10 13 0 -1
BITMAP
5A8A90
3F8F80
1F9E00
0FED00
0BED00
0BE800
07F400
07F400
03F800
03EC00
039E00
02CF00
014500
ENDCHAR
STARTCHAR l
ENCODING 108
SWIDTH 438 0
DWIDTH 7 0
BBX 8 13 0 -1
BITMAP
6AA4
2FD0
2FC0
1FC0
1F80
0F80
0B80
0B80
0B80
0B90
07FD
07FC
0518
ENDCHAR
STARTCHAR m
ENCODING 109
SWIDTH 770 0
DWIDTH 12 0
BBX 12 13 0 -1
BITMAP
0597E9
7FE7FC
2FEBF4
2FFFF0
1FFFF0
1FFFE0
1FFFE0
0FFFE0
0FBBD0
0BBBC0
0BB780
0A6780
040000
ENDCHAR
STARTCHAR n
ENCODING 110
SWIDTH 664 0
DWIDTH 11 0
BBX 11 13 0 -1
BITMAP
6A8AA4
3FCBE0
2FEBD0
2FEBC0
2FFFC0
1FFF80
1FFF80
1FFF40
0FBF40
0F7F00
0B7F00
0B2E00
0A2900
ENDCHAR
STARTCHAR o
ENCODING 111
SWIDTH 545 0
DWIDTH 9 0
BBX 9 13 0 -1
BITMAP
06A400
2FFE00
7FFF40
BFFF40
7FFF40
7F7F40
3E3F40
3E3F00
2E3E00
2E3D00
1FBD00
0BF800
016400
ENDCHAR
STARTCHAR p
ENCODING 112
SWIDTH 557 0
DWIDTH 9 0
BBX 9 13 0 -1
BITMAP
6AA900
2FFF00
1FFF40
1FFF40
0FFF40
0F9F40
0F8F00
0B9E00
0BFE00
0BD800
078000
07C000
068000
ENDCHAR
STARTCHAR q
ENCODING 113
SWIDTH 562 0
DWIDTH 9 0
BBX 9 14 0 -2
BITMAP
06E400
2FFE00
3FFF40
BFFF80
BFFF80
7F5F80
7F1F40
3F0F40
2F4F40
1FAF40
0FFF00
03FF40
005B40
000200
ENDCHAR
STARTCHAR r
ENCODING 114
SWIDTH 616 0
DWIDTH 10 0
BBX 10 13 0 -1
BITMAP
5AA900
7FFFD0
1FFFE0
0FFFD0
0FFFD0
0BCBC0
0BCBC0
0BFF80
07FF40
07EE00
07DE00
07DE00
064B00
ENDCHAR
STARTCHAR s
ENCODING 115
SWIDTH 481 0
DWIDTH 8 0
BBX 8 13 0 -1
BITMAP
06A0
2FF8
7FFD
7FFD
BFFC
BEBC
7E68
3FE0
1BF4
05B4
2EB4
1FF0
0A90
ENDCHAR
STARTCHAR t
ENCODING 116
SWIDTH 683 0
DWIDTH 11 0
BBX 10 14 0 -2
BITMAP
1AFE90
7FFFF0
2FFFD0
1FFFD0
0FFFD0
0EFED0
00BC00
007D00
007D00
007C00
007C00
003C00
003C00
001800
ENDCHAR
STARTCHAR u
ENCODING 117
SWIDTH 708 0
DWIDTH 11 0
BBX 11 12 0 0
BITMAP
5A8250
2FC7FC
2FC7F4
1FD7F0
0FD7E0
0FD7D0
0BC7D0
0BCBD0
0BDBC0
07DBC0
03FF80
01DA40
ENDCHAR
STARTCHAR v
ENCODING 118
SWIDTH 644 0
DWIDTH 10 0
BBX 9 13 1 -1
BITMAP
A92A40
BE3F40
7E3E00
3E7D00
2F7D00
2F7C00
1F7800
0FB800
0BF400
07F400
03F000
02E000
019000
ENDCHAR
STARTCHAR w
ENCODING 119
SWIDTH 704 0
DWIDTH 11 0
BBX 11 12 0 0
BITMAP
152550
7F39F8
1F7DF0
0FBEE0
0BFFD0
07FFC0
03FFC0
02FF80
01FB80
00FB80
00EB40
005740
ENDCHAR
STARTCHAR x
ENCODING 120
SWIDTH 599 0
DWIDTH 10 0
BBX 9 13 0 -1
BITMAP
5A5A40
2FAF80
0BFD00
07FC00
02F800
02F800
02F400
01F000
01F000
02F400
02B800
03BC00
061400
ENDCHAR
STARTCHAR y
ENCODING 121
SWIDTH 604 0
DWIDTH 10 0
BBX 8 13 1 -1
BITMAP
A824
BD7E
1EB8
0FF0
0BE0
07E0
03E0
03D0
02D0
02D0
02D0
02C0
0280
ENDCHAR
STARTCHAR z
ENCODING 122
SWIDTH 622 0
DWIDTH 10 0
BBX 10 13 0 -1
BITMAP
1BBA40
7FFFD0
2FFF80
1FFF40
0FFF40
0ABE00
04B800
00F400
01E000
01D000
02FD00
03FD00
011800
ENDCHAR
STARTCHAR braceleft
ENCODING 123
SWIDTH 372 0
DWIDTH 6 0
BBX 6 16 0 -2
BITMAP
0050
02E0
0BD0
1FD0
2FD0
3FC0
7F00
7E00
7D00
7D00
7D00
3E00
2F40
1FC0
0BC0
0280
ENDCHAR
STARTCHAR bar
ENCODING 124
SWIDTH 208 0
DWIDTH 3 0
BBX 2 15 1 -2
BITMAP
90
D0
D0
D0
D0
C0
D0
D0
D0
D0
C0
C0
C0
C0
40
ENDCHAR
STARTCHAR braceright
ENCODING 125
SWIDTH 338 0
DWIDTH 5 0
BBX 5 15 0 -2
BITMAP
BD00
7F00
7F80
7F80
7F80
1F80
0B80
0B80
0B40
0B40
0B40
0F00
1E00
7C00
B400
ENDCHAR
STARTCHAR asciitilde
ENCODING 126
SWIDTH 535 0
DWIDTH 9 0
BBX 7 4 1 9
BITMAP
0050
F6F4
FFF8
7D60
ENDCHAR
STARTCHAR exclamdown
ENCODING 161
SWIDTH 347 0
DWIDTH 6 0
BBX 5 20 0 0
BITMAP
2940
2FC0
2FC0
3FC0
7FC0
0100
0000
0E00
1F00
1F00
1F00
1F40
2F00
3F40
3F40
3F80
3F80
7FC0
7FC0
0400
ENDCHAR
STARTCHAR cent
ENCODING 162
SWIDTH 552 0
DWIDTH 9 0
BBX 9 23 0 -6
BITMAP
004000
008000
008000
008000
008000
06E400
2FFE00
7FFF40
BFFF00
7FFF40
7FBF00
3F2F00
3F0500
2F0000
1F2D00
1FBC00
0FF800
05A000
008000
008000
008000
008000
008000
ENDCHAR
STARTCHAR sterling
ENCODING 163
SWIDTH 589 0
DWIDTH 9 0
BBX 9 13 0 -1
BITMAP
06A400
2FFE00
7FFF40
7FFF80
7FFF80
3FBF80
3F2F40
3F5600
6F8000
0F5100
1FFE00
1FFD00
025800
ENDCHAR
STARTCHAR yen
ENCODING 165
SWIDTH 692 0
DWIDTH 11 0
BBX 11 13 0 1
BITMAP
AA4654
2F8BF4
0BDFD0
02FF80
01FF00
26FFA4
2ABE50
15BE54
2BFFA4
007D00
003D00
003D00
001500
ENDCHAR
STARTCHAR brokenbar
ENCODING 166
SWIDTH 201 0
DWIDTH 3 0
BBX 2 15 1 -2
BITMAP
80
D0
D0
C0
C0
40
00
00
00
D0
C0
C0
D0
D0
40
ENDCHAR
STARTCHAR section
ENCODING 167
SWIDTH 477 0
DWIDTH 8 0
BBX 7 15 0 -3
BITMAP
06E4
1FFC
2FFC
2FF8
2FB8
1F54
1FF0
7EF4
BC74
BDB0
7FE0
1BE0
29E0
2FD0
1E80
ENDCHAR
STARTCHAR dieresis
ENCODING 168
SWIDTH 633 0
DWIDTH 10 0
BBX 8 4 1 13
BITMAP
546A
FD7F
FD7F
FD7F
ENDCHAR
STARTCHAR copyright
ENCODING 169
SWIDTH 783 0
DWIDTH 13 0
BBX 12 15 0 -2
BITMAP
001400
01EF80
0A1964
2CBF48
35FFC5
71FFC2
61FBC2
61F383
60F003
70F246
34B749
187F18
0A15B0
01FF80
000400
ENDCHAR
STARTCHAR guillemotleft
ENCODING 171
SWIDTH 759 0
DWIDTH 12 0
BBX 12 9 0 1
BITMAP
02A0A9
0BD2F8
1FC7F0
3F4FD0
7E0FC0
3F0BD0
1F83E0
07E1F8
01B46D
ENDCHAR
STARTCHAR uni00AD
ENCODING 173
SWIDTH 446 0
DWIDTH 7 0
BBX 6 3 1 4
BITMAP
A680
FFD0
1540
ENDCHAR
STARTCHAR registered
ENCODING 174
SWIDTH 780 0
DWIDTH 12 0
BBX 12 14 0 -1
BITMAP
000400
02EA80
0B5520
2FFF48
35FFC5
70FFC6
60F787
60F787
20BF42
307B42
283A85
0E2588
0795B0
00BF80
ENDCHAR
STARTCHAR macron
ENCODING 175
SWIDTH 446 0
DWIDTH 7 0
BBX 6 3 1 4
BITMAP
A680
FFD0
1540
ENDCHAR
STARTCHAR acute
ENCODING 180
SWIDTH 439 0
DWIDTH 7 0
BBX 5 4 1 12
BITMAP
0700
1F40
BF80
9000
ENDCHAR
STARTCHAR mu
ENCODING 181
SWIDTH 679 0
DWIDTH 11 0
BBX 11 12 0 0
BITMAP
5A8650
3F8BF8
3F8BF0
2FCBE0
1FCBD0
1FCBC0
0F8BC0
0F8BC0
0FCF80
0BDF80
07FF40
02AA00
ENDCHAR
STARTCHAR paragraph
ENCODING 182
SWIDTH 591 0
DWIDTH 9 0
BBX 10 13 0 -1
BITMAP
1AAA50
7FFF80
BFEB40
7FE700
7FE700
3FE700
2FE700
0AA600
006600
006500
006500
005500
005500
ENDCHAR
STARTCHAR periodcentered
ENCODING 183
SWIDTH 388 0
DWIDTH 6 0
BBX 5 6 1 3
BITMAP
5900
FF00
FF40
BF40
BF00
5000
ENDCHAR
STARTCHAR cedilla
ENCODING 184
SWIDTH 270 0
DWIDTH 4 0
BBX 4 6 0 -6
BITMAP
28
30
7E
0A
2E
14
ENDCHAR
STARTCHAR guillemotright
ENCODING 187
SWIDTH 767 0
DWIDTH 12 0
BBX 12 9 0 1
BITMAP
7F4A80
2F87E0
0FD2F4
07F0FD
03F07E
07E0FE
1FC1FC
7F43F4
6A0BE0
ENDCHAR
STARTCHAR Agrave
ENCODING 192
SWIDTH 494 0
DWIDTH 8 0
BBX 8 20 -1 -3
BITMAP
1800
2E00
6FD0
0190
0000
16A5
0BFE
07FD
07FC
07FC
07FC
07BC
07BC
076C
07FC
07F8
07B8
0724
0114
0010
ENDCHAR
STARTCHAR Aacute
ENCODING 193
SWIDTH 494 0
DWIDTH 8 0
BBX 9 20 0 -3
BITMAP
000340
001F80
007F80
009400
000000
5A9400
2FF800
1FF400
1FF000
1FF000
1FF000
1EF000
1EF000
1DB000
1FF000
1FE000
1EE000
1C9000
045000
004000
ENDCHAR
STARTCHAR Acircumflex
ENCODING 194
SWIDTH 494 0
DWIDTH 8 0
BBX 8 22 0 -3
BITMAP
0A90
0FE0
2FF4
3DBC
742D
5004
0000
5A94
2FF8
1FF4
1FF0
1FF0
1FF0
1EF0
1EF0
1DB0
1FF0
1FE0
1EE0
1C90
0450
0040
ENDCHAR
STARTCHAR Atilde
ENCODING 195
SWIDTH 494 0
DWIDTH 8 0
BBX 8 20 0 -3
BITMAP
0010
74B8
7FFD
2FA8
0000
5A94
2FF8
1FF4
1FF0
1FF0
1FF0
1EF0
1EF0
1DB0
1FF0
1FE0
1EE0
1C90
0450
0040
ENDCHAR
STARTCHAR Adieresis
ENCODING 196
SWIDTH 494 0
DWIDTH 8 0
BBX 8 20 0 -3
BITMAP
546A
FD7F
FD7F
FD7F
0000
5A94
2FF8
1FF4
1FF0
1FF0
1FF0
1EF0
1EF0
1DB0
1FF0
1FE0
1EE0
1C90
0450
0040
ENDCHAR
STARTCHAR Aring
ENCODING 197
SWIDTH 494 0
DWIDTH 8 0
BBX 7 20 0 -3
BITMAP
0BE0
0D70
0D30
0BD0
0040
5A94
2FF8
1FF4
1FF0
1FF0
1FF0
1EF0
1EF0
1DB0
1FF0
1FE0
1EE0
1C90
0450
0040
ENDCHAR
STARTCHAR AE
ENCODING 198
SWIDTH 733 0
DWIDTH 12 0
BBX 11 15 0 -3
BITMAP
5AAAA4
2FFFF8
1FFFF4
1FFFF0
1FFFF0
1FFDA0
1EFD40
1EFFC0
1DFF80
1FF800
1FFFC0
1EEFC0
0C9940
045440
004000
ENDCHAR
STARTCHAR Ccedilla
ENCODING 199
SWIDTH 504 0
DWIDTH 8 0
BBX 8 20 0 -8
BITMAP
06E4
2FFC
7FFE
BFFE
7FFE
7FBE
7E3D
3E00
3E00
2E7C
1FB8
1FF4
0190
0140
0034
0070
007D
000D
006D
0014
ENDCHAR
STARTCHAR Egrave
ENCODING 200
SWIDTH 570 0
DWIDTH 9 0
BBX 9 18 0 -1
BITMAP
240000
7E0000
6F8000
018000
000000
6AA940
3FFF00
2FFF00
1FFE00
1FFD00
1F5800
1F5000
0FF400
0FF400
0F0000
0BF800
0AF400
054400
ENDCHAR
STARTCHAR Eacute
ENCODING 201
SWIDTH 570 0
DWIDTH 9 0
BBX 10 18 0 -1
BITMAP
000180
000BD0
002FA0
002400
000000
6AA940
3FFF00
2FFF00
1FFE00
1FFD00
1F5800
1F5000
0FF400
0FF400
0F0000
0BF800
0AF400
054400
ENDCHAR
STARTCHAR Ecircumflex
ENCODING 202
SWIDTH 570 0
DWIDTH 9 0
BBX 9 20 0 -1
BITMAP
02A000
07F400
0FFC00
1E3E00
2C0F00
100500
000000
6AA940
3FFF00
2FFF00
1FFE00
1FFD00
1F5800
1F5000
0FF400
0FF400
0F0000
0BF800
0AF400
054400
ENDCHAR
STARTCHAR Edieresis
ENCODING 203
SWIDTH 570 0
DWIDTH 9 0
BBX 9 18 0 -1
BITMAP
251A40
7F2F80
7F2F80
7F2F80
040000
6AA940
3FFF00
2FFF00
1FFE00
1FFD00
1F5800
1F5000
0FF400
0FF400
0F0000
0BF800
0AF400
054400
ENDCHAR
STARTCHAR Igrave
ENCODING 204
SWIDTH 401 0
DWIDTH 6 0
BBX 8 18 -2 -1
BITMAP
1800
2F40
6FD0
0150
0000
07AA
03FD
01FC
00FD
01FC
01FC
00F8
00F8
00F8
00B8
00B8
0068
0054
ENDCHAR
STARTCHAR Iacute
ENCODING 205
SWIDTH 401 0
DWIDTH 6 0
BBX 9 18 0 -1
BITMAP
000900
003E00
01FE40
019000
000000
7AA000
3FD000
1FC000
0FD000
1FC000
1FC000
0F8000
0F8000
0F8000
0B8000
0B8000
068000
054000
ENDCHAR
STARTCHAR Icircumflex
ENCODING 206
SWIDTH 401 0
DWIDTH 6 0
BBX 8 20 -1 -1
BITMAP
0690
0FF0
1FF8
3D7C
742E
1004
0000
1EA8
0FF4
07F0
03F4
07F0
07F0
03E0
03E0
03E0
02E0
02E0
01A0
0150
ENDCHAR
STARTCHAR Idieresis
ENCODING 207
SWIDTH 401 0
DWIDTH 6 0
BBX 8 18 -1 -1
BITMAP
642A
BD7F
BD7F
BD7F
0400
1EA8
0FF4
07F0
03F4
07F0
07F0
03E0
03E0
03E0
02E0
02E0
01A0
0150
ENDCHAR
STARTCHAR Eth
ENCODING 208
SWIDTH 530 0
DWIDTH 9 0
BBX 9 14 0 -2
BITMAP
06A800
2FFF00
1FFF80
0FFF80
0BFF80
0BDF80
0BCB40
7FEB00
078B00
07CE00
03FE00
03BD00
013400
011000
ENDCHAR
STARTCHAR Ntilde
ENCODING 209
SWIDTH 610 0
DWIDTH 10 0
BBX 9 18 0 -2
BITMAP
1D6E00
2FFF40
0FDA00
010000
2A5A40
7F9F80
2FDF40
2FEF00
1FFF00
1FFF00
1FFE00
0FFE00
0BBE00
0B7E00
0B7D00
0B6D00
066900
045400
ENDCHAR
STARTCHAR Ograve
ENCODING 210
SWIDTH 504 0
DWIDTH 8 0
BBX 9 19 -1 -2
BITMAP
180000
3E0000
6FD000
019000
000000
01A400
0BFF00
1FFF80
2FFF80
1FFF80
1FAF80
0F5F80
0F5F80
0F5F40
0B9F00
0BEE00
07FD00
00A800
001000
ENDCHAR
STARTCHAR Oacute
ENCODING 211
SWIDTH 504 0
DWIDTH 8 0
BBX 9 19 0 -2
BITMAP
000700
001F80
007F80
009400
000000
069000
2FFC00
7FFE00
BFFE00
7FFE00
7EBE00
3D7E00
3D7E00
3D7D00
2E7C00
2FB800
1FF400
02A000
004000
ENDCHAR
STARTCHAR Ocircumflex
ENCODING 212
SWIDTH 504 0
DWIDTH 8 0
BBX 8 21 0 -2
BITMAP
0A90
1FE0
2FF4
3CB8
B42D
5004
0000
0690
2FFC
7FFE
BFFE
7FFE
7EBE
3D7E
3D7E
3D7D
2E7C
2FB8
1FF4
02A0
0040
ENDCHAR
STARTCHAR Otilde
ENCODING 213
SWIDTH 504 0
DWIDTH 8 0
BBX 8 18 0 -2
BITMAP
75B4
BFFC
3E78
0400
0690
2FFC
7FFE
BFFE
7FFE
7EBE
3D7E
3D7E
3D7D
2E7C
2FB8
1FF4
02A0
0040
ENDCHAR
STARTCHAR Odieresis
ENCODING 214
SWIDTH 504 0
DWIDTH 8 0
BBX 8 19 0 -2
BITMAP
546A
FD7E
FD7F
FC7E
0000
0690
2FFC
7FFE
BFFE
7FFE
7EBE
3D7E
3D7E
3D7D
2E7C
2FB8
1FF4
02A0
0040
ENDCHAR
STARTCHAR multiply
ENCODING 215
SWIDTH 359 0
DWIDTH 6 0
BBX 6 6 0 3
BITMAP
2580
BFD0
2F80
2F80
BFD0
2580
ENDCHAR
STARTCHAR Oslash
ENCODING 216
SWIDTH 658 0
DWIDTH 11 0
BBX 11 14 0 -2
BITMAP
02A400
1FFE04
3FFF60
3FFF80
3FFF40
2F7F40
2E3F40
2EAF40
1F2F00
1F2E00
2FBE00
5BFC00
423400
001000
ENDCHAR
STARTCHAR Ugrave
ENCODING 217
SWIDTH 637 0
DWIDTH 10 0
BBX 10 18 0 -1
BITMAP
180000
2F4000
6FD000
015000
000000
6A4A40
2F4FD0
2F4FC0
2F8F80
1F9F40
1F9F40
0F5F00
0F5F00
0F9F00
0FAE00
0BFE00
07A800
010400
ENDCHAR
STARTCHAR Uacute
ENCODING 218
SWIDTH 637 0
DWIDTH 10 0
BBX 11 18 0 -1
BITMAP
000090
0003E0
001FE4
001900
000000
6A4A40
2F4FD0
2F4FC0
2F8F80
1F9F40
1F9F40
0F5F00
0F5F00
0F9F00
0FAE00
0BFE00
07A800
010400
ENDCHAR
STARTCHAR Ucircumflex
ENCODING 219
SWIDTH 637 0
DWIDTH 10 0
BBX 10 20 0 -1
BITMAP
01A400
03FC00
07FE00
0B5F00
1D0B80
040100
000000
6A4A40
2F4FD0
2F4FC0
2F8F80
1F9F40
1F9F40
0F5F00
0F5F00
0F9F00
0FAE00
0BFE00
07A800
010400
ENDCHAR
STARTCHAR Udieresis
ENCODING 220
SWIDTH 637 0
DWIDTH 10 0
BBX 10 18 0 -1
BITMAP
194680
2F5FC0
2F4FC0
2F4FC0
010000
6A4A40
2F4FD0
2F4FC0
2F8F80
1F9F40
1F9F40
0F5F00
0F5F00
0F9F00
0FAE00
0BFE00
07A800
010400
ENDCHAR
STARTCHAR Yacute
ENCODING 221
SWIDTH 688 0
DWIDTH 11 0
BBX 11 18 0 -1
BITMAP
000070
0001F4
000BE8
000900
000000
6A8250
1FD7F8
07EBD0
01FF80
00FF00
007F00
003F00
002E00
002E00
001E00
001E00
001E00
000400
ENDCHAR
STARTCHAR Thorn
ENCODING 222
SWIDTH 521 0
DWIDTH 8 0
BBX 8 17 0 -2
BITMAP
5640
BF40
BF40
7FA8
7FFE
3FFE
3FFE
3FFE
3F6E
2F5E
2F6D
1FFC
0F94
0F40
0F40
0A40
0500
ENDCHAR
STARTCHAR germandbls
ENCODING 223
SWIDTH 546 0
DWIDTH 9 0
BBX 9 13 0 -1
BITMAP
06A800
3FFF00
7FFF40
7FFF40
7FFF40
7F7F00
7E2D00
3E7C00
3EB800
2E7C00
2E3C00
1EBC00
1AB400
ENDCHAR
STARTCHAR agrave
ENCODING 224
SWIDTH 479 0
DWIDTH 8 0
BBX 9 19 -1 -2
BITMAP
180000
2F4000
6FD000
015000
000000
1AFF40
0BFE00
07FE00
07FD00
07FD00
07FD00
07FD00
07AD00
07AD00
07AD00
07FD00
07AD00
075C00
010000
ENDCHAR
STARTCHAR aacute
ENCODING 225
SWIDTH 479 0
DWIDTH 8 0
BBX 10 19 0 -2
BITMAP
000240
000F80
007F90
006400
000000
6BFD00
2FF800
1FF800
1FF400
1FF400
1FF400
1FF400
1EB400
1EB400
1EB400
1FF400
1EB400
1D7000
040000
ENDCHAR
STARTCHAR acircumflex
ENCODING 226
SWIDTH 479 0
DWIDTH 8 0
BBX 8 21 0 -2
BITMAP
0690
0FF0
1FF8
3D7C
742D
1004
0000
6BFD
2FF8
1FF8
1FF4
1FF4
1FF4
1FF4
1EB4
1EB4
1EB4
1FF4
1EB4
1D70
0400
ENDCHAR
STARTCHAR atilde
ENCODING 227
SWIDTH 479 0
DWIDTH 8 0
BBX 8 19 0 -2
BITMAP
0010
75B8
BFFD
2F68
0400
6BFD
2FF8
1FF8
1FF4
1FF4
1FF4
1FF4
1EB4
1EB4
1EB4
1FF4
1EB4
1D70
0400
ENDCHAR
STARTCHAR adieresis
ENCODING 228
SWIDTH 479 0
DWIDTH 8 0
BBX 8 19 0 -2
BITMAP
642A
BD7F
BD7F
BD7F
0400
6BFD
2FF8
1FF8
1FF4
1FF4
1FF4
1FF4
1EB4
1EB4
1EB4
1FF4
1EB4
1D70
0400
ENDCHAR
STARTCHAR aring
ENCODING 229
SWIDTH 479 0
DWIDTH 8 0
BBX 8 19 0 -2
BITMAP
07E0
0D74
0930
0BE0
0040
6BFD
2FF8
1FF8
1FF4
1FF4
1FF4
1FF4
1EB4
1EB4
1EB4
1FF4
1EB4
1D70
0400
ENDCHAR
STARTCHAR ae
ENCODING 230
SWIDTH 755 0
DWIDTH 12 0
BBX 12 14 0 -2
BITMAP
6BFFA5
2FFFFD
1FFFF8
0FFFF4
1FFFF4
1FFEB0
0FFC00
1FBFD0
1EBFC0
1EBD40
1FFE90
1EBFD0
1D7650
040000
ENDCHAR
STARTCHAR ccedilla
ENCODING 231
SWIDTH 534 0
DWIDTH 9 0
BBX 8 19 0 -7
BITMAP
06E4
2FFE
7FFF
BFFF
BFFF
7FBF
3F2F
3F05
2F00
2F2C
1FBC
0FF8
0560
0070
0090
00BC
001C
00BC
0054
ENDCHAR
STARTCHAR egrave
ENCODING 232
SWIDTH 632 0
DWIDTH 10 0
BBX 10 18 0 -1
BITMAP
180000
2F0000
6FD000
019000
000000
1AAA50
7FFFD0
2FFF80
1FFF40
1FFF40
0FEB00
0FC000
0BFD00
0BFD00
07D400
07E900
03FD00
015500
ENDCHAR
STARTCHAR eacute
ENCODING 233
SWIDTH 632 0
DWIDTH 10 0
BBX 11 18 0 -1
BITMAP
0000D0
0007E0
001FE4
001500
000000
1AAA50
7FFFD0
2FFF80
1FFF40
1FFF40
0FEB00
0FC000
0BFD00
0BFD00
07D400
07E900
03FD00
015500
ENDCHAR
STARTCHAR ecircumflex
ENCODING 234
SWIDTH 632 0
DWIDTH 10 0
BBX 10 20 0 -1
BITMAP
01A400
03FC00
0BFD00
0F6F00
1D0B40
140100
000000
1AAA50
7FFFD0
2FFF80
1FFF40
1FFF40
0FEB00
0FC000
0BFD00
0BFD00
07D400
07E900
03FD00
015500
ENDCHAR
STARTCHAR edieresis
ENCODING 235
SWIDTH 632 0
DWIDTH 10 0
BBX 10 18 0 -1
BITMAP
150A80
2F5FC0
3F5FC0
2F5FC0
000000
1AAA50
7FFFD0
2FFF80
1FFF40
1FFF40
0FEB00
0FC000
0BFD00
0BFD00
07D400
07E900
03FD00
015500
ENDCHAR
STARTCHAR igrave
ENCODING 236
SWIDTH 411 0
DWIDTH 7 0
BBX 7 18 -1 -1
BITMAP
3000
BD00
BF40
0580
0000
1AA8
0FF8
07F4
03F0
03F0
03E0
03E0
03E0
02E0
02E0
02D0
01D0
0010
ENDCHAR
STARTCHAR iacute
ENCODING 237
SWIDTH 411 0
DWIDTH 7 0
BBX 9 18 0 -1
BITMAP
000900
002E00
01FE40
019000
000000
6AA000
3FE000
1FD000
0FC000
0FC000
0F8000
0F8000
0F8000
0B8000
0B8000
0B4000
074000
004000
ENDCHAR
STARTCHAR icircumflex
ENCODING 238
SWIDTH 411 0
DWIDTH 7 0
BBX 7 20 0 -1
BITMAP
0A80
1FE0
3FF0
78B8
B03C
4014
0000
6AA0
3FE0
1FD0
0FC0
0FC0
0F80
0F80
0F80
0B80
0B80
0B40
0740
0040
ENDCHAR
STARTCHAR idieresis
ENCODING 239
SWIDTH 411 0
DWIDTH 7 0
BBX 8 18 -1 -1
BITMAP
651A
BE3F
BE3F
BD3F
0400
1AA8
0FF8
07F4
03F0
03F0
03E0
03E0
03E0
02E0
02E0
02D0
01D0
0010
ENDCHAR
STARTCHAR eth
ENCODING 240
SWIDTH 530 0
DWIDTH 9 0
BBX 9 14 0 -2
BITMAP
06A800
2FFF00
1FFF80
0FFF80
0BFF80
0BDF80
0BCB40
7FEB00
078B00
07CE00
03FE00
03BD00
013400
011000
ENDCHAR
STARTCHAR ntilde
ENCODING 241
SWIDTH 664 0
DWIDTH 11 0
BBX 11 18 0 -1
BITMAP
000400
0A2F00
1FFF80
07EB40
000000
6A8AA4
3FCBE0
2FEBD0
2FEBC0
2FFFC0
1FFF80
1FFF80
1FFF40
0FBF40
0F7F00
0B7F00
0B2E00
0A2900
ENDCHAR
STARTCHAR ograve
ENCODING 242
SWIDTH 545 0
DWIDTH 9 0
BBX 9 18 0 -1
BITMAP
340000
BD0000
BF8000
058000
000000
06A400
2FFE00
7FFF40
BFFF40
7FFF40
7F7F40
3E3F40
3E3F00
2E3E00
2E3D00
1FBD00
0BF800
016400
ENDCHAR
STARTCHAR oacute
ENCODING 243
SWIDTH 545 0
DWIDTH 9 0
BBX 10 18 0 -1
BITMAP
000240
000BC0
007F90
006400
000000
06A400
2FFE00
7FFF40
BFFF40
7FFF40
7F7F40
3E3F40
3E3F00
2E3E00
2E3D00
1FBD00
0BF800
016400
ENDCHAR
STARTCHAR ocircumflex
ENCODING 244
SWIDTH 545 0
DWIDTH 9 0
BBX 9 20 0 -1
BITMAP
069000
0BF000
1FF800
2D7C00
381E00
100400
000000
06A400
2FFE00
7FFF40
BFFF40
7FFF40
7F7F40
3E3F40
3E3F00
2E3E00
2E3D00
1FBD00
0BF800
016400
ENDCHAR
STARTCHAR otilde
ENCODING 245
SWIDTH 545 0
DWIDTH 9 0
BBX 9 18 0 -1
BITMAP
001000
74B800
7FFD00
2FA800
000000
06A400
2FFE00
7FFF40
BFFF40
7FFF40
7F7F40
3E3F40
3E3F00
2E3E00
2E3D00
1FBD00
0BF800
016400
ENDCHAR
STARTCHAR odieresis
ENCODING 246
SWIDTH 545 0
DWIDTH 9 0
BBX 9 18 0 -1
BITMAP
651A00
BE3F40
BE3F40
BE3F40
040000
06A400
2FFE00
7FFF40
BFFF40
7FFF40
7F7F40
3E3F40
3E3F00
2E3E00
2E3D00
1FBD00
0BF800
016400
ENDCHAR
STARTCHAR oslash
ENCODING 248
SWIDTH 676 0
DWIDTH 11 0
BBX 10 13 0 -1
BITMAP
06A400
1FFD20
3FFF80
7FFF40
3FFF40
3F7F40
3E7F40
2F6F00
2E3E00
1E3D00
2FBD00
4BF800
016400
ENDCHAR
STARTCHAR ugrave
ENCODING 249
SWIDTH 708 0
DWIDTH 11 0
BBX 11 17 0 0
BITMAP
0A0000
1F8000
1BF000
006400
000000
5A8250
2FC7FC
2FC7F4
1FD7F0
0FD7E0
0FD7D0
0BC7D0
0BCBD0
0BDBC0
07DBC0
03FF80
01DA40
ENDCHAR
STARTCHAR uacute
ENCODING 250
SWIDTH 708 0
DWIDTH 11 0
BBX 11 17 0 0
BITMAP
000070
0001F4
000BF8
000900
000000
5A8250
2FC7FC
2FC7F4
1FD7F0
0FD7E0
0FD7D0
0BC7D0
0BCBD0
0BDBC0
07DBC0
03FF80
01DA40
ENDCHAR
STARTCHAR ucircumflex
ENCODING 251
SWIDTH 708 0
DWIDTH 11 0
BBX 11 19 0 0
BITMAP
00A800
01FE00
02FF00
07CB80
0B03C0
050040
000000
5A8250
2FC7FC
2FC7F4
1FD7F0
0FD7E0
0FD7D0
0BC7D0
0BCBD0
0BDBC0
07DBC0
03FF80
01DA40
ENDCHAR
STARTCHAR udieresis
ENCODING 252
SWIDTH 708 0
DWIDTH 11 0
BBX 11 17 0 0
BITMAP
054690
0FCBE0
0FCBE0
0FCBE0
000000
5A8250
2FC7FC
2FC7F4
1FD7F0
0FD7E0
0FD7D0
0BC7D0
0BCBD0
0BDBC0
07DBC0
03FF80
01DA40
ENDCHAR
STARTCHAR yacute
ENCODING 253
SWIDTH 604 0
DWIDTH 10 0
BBX 9 18 1 -1
BITMAP
000700
001F80
00BF80
009400
000000
A82400
BD7E00
1EB800
0FF000
0BE000
07E000
03E000
03D000
02D000
02D000
02D000
02C000
028000
ENDCHAR
STARTCHAR thorn
ENCODING 254
SWIDTH 498 0
DWIDTH 8 0
BBX 8 17 0 -2
BITMAP
5640
BF40
BF00
7FA4
7FFD
3FFD
3FFD
3FFD
3F3D
2F2D
2F6C
1FF8
0F94
0F40
0F40
0A40
0500
ENDCHAR
STARTCHAR ydieresis
ENCODING 255
SWIDTH 604 0
DWIDTH 10 0
BBX 9 18 1 -1
BITMAP
651A00
7E3F40
BE3F40
7E3F40
040000
A82400
BD7E00
1EB800
0FF000
0BE000
07E000
03E000
03D000
02D000
02D000
02D000
02C000
028000
ENDCHAR
STARTCHAR Amacron
ENCODING 256
SWIDTH 494 0
DWIDTH 8 0
BBX 7 18 0 -3
BITMAP
1AA4
2FF8
0554
5A94
2FF8
1FF4
1FF0
1FF0
1FF0
1EF0
1EF0
1DB0
1FF0
1FE0
1EE0
1C90
0450
0040
ENDCHAR
STARTCHAR amacron
ENCODING 257
SWIDTH 479 0
DWIDTH 8 0
BBX 8 17 0 -2
BITMAP
1AA4
2FF8
0554
6BFD
2FF8
1FF8
1FF4
1FF4
1FF4
1FF4
1EB4
1EB4
1EB4
1FF4
1EB4
1D70
0400
ENDCHAR
STARTCHAR Abreve
ENCODING 258
SWIDTH 494 0
DWIDTH 8 0
BBX 8 21 0 -3
BITMAP
0500
1E1E
0FAD
0BFC
0124
0000
5A94
2FF8
1FF4
1FF0
1FF0
1FF0
1EF0
1EF0
1DB0
1FF0
1FE0
1EE0
1C90
0450
0040
ENDCHAR
STARTCHAR abreve
ENCODING 259
SWIDTH 479 0
DWIDTH 8 0
BBX 8 20 0 -2
BITMAP
0500
1E1E
0FAD
0BFC
0124
0000
6BFD
2FF8
1FF8
1FF4
1FF4
1FF4
1FF4
1EB4
1EB4
1EB4
1FF4
1EB4
1D70
0400
ENDCHAR
STARTCHAR Aogonek
ENCODING 260
SWIDTH 494 0
DWIDTH 8 0
BBX 8 19 0 -7
BITMAP
5A94
2FF8
1FF4
1FF0
1FF0
1FF0
1EF0
1EF0
1DB0
1FF0
1FE0
1EE0
1CD0
05D0
02D0
02D0
02E5
01FE
0069
ENDCHAR
STARTCHAR aogonek
ENCODING 261
SWIDTH 479 0
DWIDTH 8 0
BBX 9 18 0 -6
BITMAP
6BFD00
2FF800
1FF800
1FF400
1FF400
1FF400
1FF400
1EB400
1EB400
1EB400
1FF400
1EB400
1D7000
04B000
00B000
00B900
007F40
001A00
ENDCHAR
STARTCHAR Cacute
ENCODING 262
SWIDTH 504 0
DWIDTH 8 0
BBX 9 19 0 -2
BITMAP
000900
002E00
01FE40
019000
000000
06E400
2FFC00
7FFE00
BFFE00
7FFE00
7FBE00
7E3D00
3E0000
3E0000
2E7C00
1FB800
1FF400
019000
014000
ENDCHAR
STARTCHAR cacute
ENCODING 263
SWIDTH 534 0
DWIDTH 9 0
BBX 9 18 0 -1
BITMAP
000600
002F40
00BE40
009000
000000
06E400
2FFE00
7FFF00
BFFF00
BFFF00
7FBF00
3F2F00
3F0500
2F0000
2F2C00
1FBC00
0FF800
056000
ENDCHAR
STARTCHAR Ccircumflex
ENCODING 264
SWIDTH 504 0
DWIDTH 8 0
BBX 8 21 0 -2
BITMAP
06A0
0BF4
0FF8
2E3D
381E
2005
0000
06E4
2FFC
7FFE
BFFE
7FFE
7FBE
7E3D
3E00
3E00
2E7C
1FB8
1FF4
0190
0140
ENDCHAR
STARTCHAR ccircumflex
ENCODING 265
SWIDTH 534 0
DWIDTH 9 0
BBX 9 20 0 -1
BITMAP
02A400
07F800
0BFD00
0F2E00
2D0B40
140100
000000
06E400
2FFE00
7FFF00
BFFF00
BFFF00
7FBF00
3F2F00
3F0500
2F0000
2F2C00
1FBC00
0FF800
056000
ENDCHAR
STARTCHAR Cdotaccent
ENCODING 266
SWIDTH 504 0
DWIDTH 8 0
BBX 8 20 0 -2
BITMAP
05A0
0BF4
0BF4
0BF4
0BF4
0500
06E4
2FFC
7FFE
BFFE
7FFE
7FBE
7E3D
3E00
3E00
2E7C
1FB8
1FF4
0190
0140
ENDCHAR
STARTCHAR cdotaccent
ENCODING 267
SWIDTH 534 0
DWIDTH 9 0
BBX 8 19 0 -1
BITMAP
05A4
0BF8
07F8
07F8
07F8
0100
06E4
2FFE
7FFF
BFFF
BFFF
7FBF
3F2F
3F05
2F00
2F2C
1FBC
0FF8
0560
ENDCHAR
STARTCHAR Ccaron
ENCODING 268
SWIDTH 504 0
DWIDTH 8 0
BBX 8 21 0 -2
BITMAP
2408
7C2E
2E7C
1FF8
0FF0
0690
0000
06E4
2FFC
7FFE
BFFE
7FFE
7FBE
7E3D
3E00
3E00
2E7C
1FB8
1FF4
0190
0140
ENDCHAR
STARTCHAR ccaron
ENCODING 269
SWIDTH 534 0
DWIDTH 9 0
BBX 8 20 0 -1
BITMAP
180A
2E1F
1F6E
0BFC
07F8
02A0
0000
06E4
2FFE
7FFF
BFFF
BFFF
7FBF
3F2F
3F05
2F00
2F2C
1FBC
0FF8
0560
ENDCHAR
STARTCHAR Dcaron
ENCODING 270
SWIDTH 522 0
DWIDTH 8 0
BBX 9 21 0 -2
BITMAP
1C0600
1E0F40
0F6E00
0BFD00
03F800
01A400
000000
16A400
7FFD00
3FFF00
2FFF00
1FFF00
1FAF00
1F5E00
1F1D00
0F5D00
0F6C00
0BFC00
0AF800
08A000
044000
ENDCHAR
STARTCHAR dcaron
ENCODING 271
SWIDTH 522 0
DWIDTH 8 0
BBX 9 21 0 -2
BITMAP
1C0600
1E0F40
0F6E00
0BFD00
03F800
01A400
000000
16A400
7FFD00
3FFF00
2FFF00
1FFF00
1FAF00
1F5E00
1F1D00
0F5D00
0F6C00
0BFC00
0AF800
08A000
044000
ENDCHAR
STARTCHAR Eth.dup2
ENCODING 272
SWIDTH 530 0
DWIDTH 9 0
BBX 9 14 0 -2
BITMAP
06A800
2FFF00
1FFF80
0FFF80
0BFF80
0BDF80
0BCB40
7FEB00
078B00
07CE00
03FE00
03BD00
013400
011000
ENDCHAR
STARTCHAR Emacron
ENCODING 274
SWIDTH 570 0
DWIDTH 9 0
BBX 9 16 0 -1
BITMAP
0AA800
1FFD00
015400
6AA940
3FFF00
2FFF00
1FFE00
1FFD00
1F5800
1F5000
0FF400
0FF400
0F0000
0BF800
0AF400
054400
ENDCHAR
STARTCHAR emacron
ENCODING 275
SWIDTH 632 0
DWIDTH 10 0
BBX 10 16 0 -1
BITMAP
06A900
0BFE00
015500
1AAA50
7FFFD0
2FFF80
1FFF40
1FFF40
0FEB00
0FC000
0BFD00
0BFD00
07D400
07E900
03FD00
015500
ENDCHAR
STARTCHAR Ebreve
ENCODING 276
SWIDTH 570 0
DWIDTH 9 0
BBX 9 19 0 -1
BITMAP
050000
0B4B40
07AF00
02FE00
005900
000000
6AA940
3FFF00
2FFF00
1FFE00
1FFD00
1F5800
1F5000
0FF400
0FF400
0F0000
0BF800
0AF400
054400
ENDCHAR
STARTCHAR ebreve
ENCODING 277
SWIDTH 632 0
DWIDTH 10 0
BBX 10 19 0 -1
BITMAP
014000
03C3C0
02EB80
01BF40
001A00
000000
1AAA50
7FFFD0
2FFF80
1FFF40
1FFF40
0FEB00
0FC000
0BFD00
0BFD00
07D400
07E900
03FD00
015500
ENDCHAR
STARTCHAR Edotaccent
ENCODING 278
SWIDTH 570 0
DWIDTH 9 0
BBX 9 19 0 -1
BITMAP
05A400
0BF800
07F800
07F800
07F800
010000
6AA940
3FFF00
2FFF00
1FFE00
1FFD00
1F5800
1F5000
0FF400
0FF400
0F0000
0BF800
0AF400
054400
ENDCHAR
STARTCHAR edotaccent
ENCODING 279
SWIDTH 632 0
DWIDTH 10 0
BBX 10 19 0 -1
BITMAP
016400
07FC00
03FC00
03FC00
03FC00
014000
1AAA50
7FFFD0
2FFF80
1FFF40
1FFF40
0FEB00
0FC000
0BFD00
0BFD00
07D400
07E900
03FD00
015500
ENDCHAR
STARTCHAR Eogonek
ENCODING 280
SWIDTH 513 0
DWIDTH 8 0
BBX 9 17 0 -5
BITMAP
6AA940
3FFF00
2FFF00
1FFE00
1FFD00
1F5800
1F5000
0FF400
0FF400
0F0000
0BF800
0BF400
04B400
00E000
00E000
00BE00
007F00
ENDCHAR
STARTCHAR eogonek
ENCODING 281
SWIDTH 632 0
DWIDTH 10 0
BBX 10 18 0 -6
BITMAP
1AAA50
7FFFD0
2FFF80
1FFF40
1FFF40
0FEB00
0FC000
0BFD00
0BFD00
07D400
07E900
03FD00
017800
003400
003800
003E80
001FC0
000140
ENDCHAR
STARTCHAR Ecaron
ENCODING 282
SWIDTH 570 0
DWIDTH 9 0
BBX 9 20 0 -1
BITMAP
1C0600
1E0F40
0F6E00
0BFD00
03F800
01A400
000000
6AA940
3FFF00
2FFF00
1FFE00
1FFD00
1F5800
1F5000
0FF400
0FF400
0F0000
0BF800
0AF400
054400
ENDCHAR
STARTCHAR ecaron
ENCODING 283
SWIDTH 632 0
DWIDTH 10 0
BBX 10 20 0 -1
BITMAP
060280
0B87C0
07DF80
02FF00
01FE00
00A800
000000
1AAA50
7FFFD0
2FFF80
1FFF40
1FFF40
0FEB00
0FC000
0BFD00
0BFD00
07D400
07E900
03FD00
015500
ENDCHAR
STARTCHAR Gcircumflex
ENCODING 284
SWIDTH 499 0
DWIDTH 8 0
BBX 8 20 0 -1
BITMAP
0690
0FF0
2FF4
3DBC
742D
5004
0000
0690
3FF8
7FFD
7FFE
7FFE
7EBD
3D7D
3D54
2DBD
2D7D
1E7C
0FFC
05A4
ENDCHAR
STARTCHAR gcircumflex
ENCODING 285
SWIDTH 546 0
DWIDTH 9 0
BBX 9 20 0 -1
BITMAP
06A000
0BF400
1FF800
2D7D00
381E00
100500
000000
0AA400
2FFE00
7FFF00
7FFF40
7FFF40
7FBF40
3E3F00
3E1600
2E7A00
1F7E00
1F6E00
0FFE00
07FD00
ENDCHAR
STARTCHAR Gbreve
ENCODING 286
SWIDTH 499 0
DWIDTH 8 0
BBX 8 19 0 -1
BITMAP
1400
2D2D
1EBC
0BF8
0164
0000
0690
3FF8
7FFD
7FFE
7FFE
7EBD
3D7D
3D54
2DBD
2D7D
1E7C
0FFC
05A4
ENDCHAR
STARTCHAR gbreve
ENCODING 287
SWIDTH 546 0
DWIDTH 9 0
BBX 9 19 0 -1
BITMAP
050000
1E1E00
0FAD00
0BFC00
012400
000000
0AA400
2FFE00
7FFF00
7FFF40
7FFF40
7FBF40
3E3F00
3E1600
2E7A00
1F7E00
1F6E00
0FFE00
07FD00
ENDCHAR
STARTCHAR Gdotaccent
ENCODING 288
SWIDTH 499 0
DWIDTH 8 0
BBX 8 19 0 -1
BITMAP
0590
1FF0
0FF0
0FF0
0FF0
0500
0690
3FF8
7FFD
7FFE
7FFE
7EBD
3D7D
3D54
2DBD
2D7D
1E7C
0FFC
05A4
ENDCHAR
STARTCHAR gdotaccent
ENCODING 289
SWIDTH 546 0
DWIDTH 9 0
BBX 9 19 0 -1
BITMAP
05A000
0FF400
0BF400
0BF400
0BF400
050000
0AA400
2FFE00
7FFF00
7FFF40
7FFF40
7FBF40
3E3F00
3E1600
2E7A00
1F7E00
1F6E00
0FFE00
07FD00
ENDCHAR
STARTCHAR Gcommaaccent
ENCODING 290
SWIDTH 499 0
DWIDTH 8 0
BBX 8 22 0 -10
BITMAP
0690
3FF8
7FFD
7FFE
7FFE
7EBD
3D7D
3D54
2DBD
2D7D
1E7C
0FFC
05A4
0000
0150
07F4
07F4
07F4
05B4
0074
00B0
0050
ENDCHAR
STARTCHAR Hcircumflex
ENCODING 292
SWIDTH 726 0
DWIDTH 12 0
BBX 10 20 1 -1
BITMAP
02A000
07F800
0BFC00
1E2E00
2C0F00
140100
000000
1A5A90
FF1FE0
BF1FD0
7E1FC0
7E1F80
3E1F40
3E6F40
2FFF00
2FBF00
2E2E00
1F3E00
1F3D00
142900
ENDCHAR
STARTCHAR hcircumflex
ENCODING 293
SWIDTH 730 0
DWIDTH 12 0
BBX 10 20 1 -1
BITMAP
02A000
07F800
0BFC00
1F2E00
2C0F00
140100
000000
5B5FA0
BF0FE0
BF0FD0
7F1FC0
7F1F80
3E1F80
2FAF40
2FFF00
2F6F00
2F2E00
1F2E00
1F3D00
141900
ENDCHAR
STARTCHAR hbar
ENCODING 295
SWIDTH 704 0
DWIDTH 11 0
BBX 10 13 1 -1
BITMAP
5B2E90
BE2FD0
BFBFC0
7FFF80
7FFF40
3E6F00
2EBE00
2FFE00
2F7E00
2F2E00
1F2E00
1F3D00
141900
ENDCHAR
STARTCHAR Itilde
ENCODING 296
SWIDTH 401 0
DWIDTH 6 0
BBX 8 18 -1 -1
BITMAP
0010
75B8
BFFD
2F68
0400
1EA8
0FF4
07F0
03F4
07F0
07F0
03E0
03E0
03E0
02E0
02E0
01A0
0150
ENDCHAR
STARTCHAR itilde
ENCODING 297
SWIDTH 411 0
DWIDTH 7 0
BBX 8 18 -1 -1
BITMAP
0010
74B8
7FFD
2FA8
0000
1AA8
0FF8
07F4
03F0
03F0
03E0
03E0
03E0
02E0
02E0
02D0
01D0
0010
ENDCHAR
STARTCHAR Imacron
ENCODING 298
SWIDTH 401 0
DWIDTH 6 0
BBX 6 16 0 -1
BITMAP
6A90
BFE0
1550
7AA0
3FD0
1FC0
0FD0
1FC0
1FC0
0F80
0F80
0F80
0B80
0B80
0680
0540
ENDCHAR
STARTCHAR imacron
ENCODING 299
SWIDTH 411 0
DWIDTH 7 0
BBX 6 16 0 -1
BITMAP
6A50
BFE0
1550
6AA0
3FE0
1FD0
0FC0
0FC0
0F80
0F80
0F80
0B80
0B80
0B40
0740
0040
ENDCHAR
STARTCHAR Ibreve
ENCODING 300
SWIDTH 401 0
DWIDTH 6 0
BBX 7 19 0 -1
BITMAP
5000
7474
3EF4
2FF0
0590
0000
7AA0
3FD0
1FC0
0FD0
1FC0
1FC0
0F80
0F80
0F80
0B80
0B80
0680
0540
ENDCHAR
STARTCHAR ibreve
ENCODING 301
SWIDTH 411 0
DWIDTH 7 0
BBX 7 19 0 -1
BITMAP
5000
74B4
3DF4
2FE0
0590
0000
6AA0
3FE0
1FD0
0FC0
0FC0
0F80
0F80
0F80
0B80
0B80
0B40
0740
0040
ENDCHAR
STARTCHAR Iogonek
ENCODING 302
SWIDTH 401 0
DWIDTH 6 0
BBX 6 19 0 -7
BITMAP
7AA0
3FD0
1FC0
0FD0
1FC0
1FC0
0F80
0F80
0F80
0B80
0B80
0B80
0B40
0E00
0D00
0E00
0FE0
07F0
0040
ENDCHAR
STARTCHAR iogonek
ENCODING 303
SWIDTH 412 0
DWIDTH 7 0
BBX 6 18 0 -6
BITMAP
6AA0
3FE0
1FD0
0FC0
0FC0
0F80
0F80
0F80
0B80
0B80
0B40
0B40
0B40
0E00
0E00
0F40
0BF0
02E0
ENDCHAR
STARTCHAR Idotaccent
ENCODING 304
SWIDTH 401 0
DWIDTH 6 0
BBX 6 19 0 -1
BITMAP
1640
3FC0
3FC0
2FC0
2FC0
1400
7AA0
3FD0
1FC0
0FD0
1FC0
1FC0
0F80
0F80
0F80
0B80
0B80
0680
0540
ENDCHAR
STARTCHAR dotlessi
ENCODING 305
SWIDTH 411 0
DWIDTH 7 0
BBX 6 13 0 -1
BITMAP
6AA0
3FE0
1FD0
0FC0
0FC0
0F80
0F80
0F80
0B80
0B80
0B40
0740
0040
ENDCHAR
STARTCHAR IJ
ENCODING 306
SWIDTH 908 0
DWIDTH 15 0
BBX 14 13 0 -1
BITMAP
7EA01A90
3FE00FE0
1FD00BD0
0FD00BC0
1FD00B80
1FC00F80
0FC00F80
0FC00B40
0FC2CF40
0BC3CF00
0B83EF00
0681EE00
04401400
ENDCHAR
STARTCHAR ij
ENCODING 307
SWIDTH 901 0
DWIDTH 14 0
BBX 14 13 0 -1
BITMAP
6AA02A50
3FE02FD0
1FD01FD0
0FD00FC0
0FC00FC0
0FC00FC0
0FC00FC0
0FC00B80
0BC2CF80
0B83DB80
0782FF40
0781FF00
00400500
ENDCHAR
STARTCHAR Jcircumflex
ENCODING 308
SWIDTH 455 0
DWIDTH 7 0
BBX 9 20 -1 -1
BITMAP
00A800
02FD00
03FF00
078F40
0E07C0
040140
000000
01A900
01FD00
00FC00
00F800
00F800
00F800
00F400
00F400
68F000
3CF000
3EE000
2ED000
014000
ENDCHAR
STARTCHAR jcircumflex
ENCODING 309
SWIDTH 458 0
DWIDTH 7 0
BBX 8 20 0 -1
BITMAP
02A0
0BF4
0FFC
1E3D
380F
1005
0000
0A94
0BF4
07F4
03F0
03F0
03F0
03E0
03E0
B3E0
F7E0
FFD0
7FC0
0140
ENDCHAR
STARTCHAR Kcommaaccent
ENCODING 310
SWIDTH 580 0
DWIDTH 9 0
BBX 9 21 0 -9
BITMAP
6A5940
3F6F40
1F6D00
0FB800
0FF400
0BF400
0BF800
0BF800
07F800
07B800
076C00
035D00
014400
015400
02FC00
02FC00
02FC00
016C00
002C00
003800
001400
ENDCHAR
STARTCHAR kcommaaccent
ENCODING 311
SWIDTH 636 0
DWIDTH 10 0
BBX 10 21 0 -9
BITMAP
5A8A90
3F8F80
1F9E00
0FED00
0BED00
0BE800
07F400
07F400
03F800
03EC00
039E00
02CF00
014500
005400
01FD00
01FE00
01FE00
006D00
001D00
001D00
001400
ENDCHAR
STARTCHAR kgreenlandic
ENCODING 312
SWIDTH 636 0
DWIDTH 10 0
BBX 10 13 0 -1
BITMAP
5A8A90
3F8F80
1F9E00
0FED00
0BED00
0BE800
07F400
07F400
03F800
03EC00
039E00
02CF00
014500
ENDCHAR
STARTCHAR Lacute
ENCODING 313
SWIDTH 416 0
DWIDTH 7 0
BBX 9 18 0 -1
BITMAP
000900
002E00
01FE40
019000
000000
6A9000
3F8000
3F4000
2F4000
2F4000
2F4000
1F4000
1F4000
0F4000
0F8000
0FFC00
0BF800
056800
ENDCHAR
STARTCHAR lacute
ENCODING 314
SWIDTH 438 0
DWIDTH 7 0
BBX 9 18 0 -1
BITMAP
000600
002F40
00BE40
009000
000000
6AA400
2FD000
2FC000
1FC000
1F8000
0F8000
0B8000
0B8000
0B8000
0B9000
07FD00
07FC00
051800
ENDCHAR
STARTCHAR Lcommaaccent
ENCODING 315
SWIDTH 416 0
DWIDTH 7 0
BBX 7 22 0 -10
BITMAP
6A90
3F80
3F40
2F40
2F40
2F40
1F40
1F40
0F40
0F80
0FFC
0BF8
0568
0000
0550
0FE0
0FE0
1FE0
05E0
00D0
01D0
0040
ENDCHAR
STARTCHAR lcommaaccent
ENCODING 316
SWIDTH 438 0
DWIDTH 7 0
BBX 8 22 0 -10
BITMAP
6AA4
2FD0
2FC0
1FC0
1F80
0F80
0B80
0B80
0B80
0B90
07FD
07FC
0518
0000
0550
0FF0
0FF0
0FF0
05F0
00E0
00E0
0050
ENDCHAR
STARTCHAR Lcaron
ENCODING 317
SWIDTH 714 0
DWIDTH 11 0
BBX 11 13 0 -1
BITMAP
6A9154
3F87F8
3F47F8
2F47F8
2F47F8
2F4178
1F4038
1F4074
0F4010
0F8000
0FFC00
0BFC00
055800
ENDCHAR
STARTCHAR lcaron
ENCODING 318
SWIDTH 782 0
DWIDTH 13 0
BBX 12 13 0 -1
BITMAP
6AA455
2FD1FF
2FC1FF
1FC1FF
1F81FF
0F805F
0B800E
0B800E
0B8004
0B9000
07FD00
07FC00
051800
ENDCHAR
STARTCHAR Ldotaccent
ENCODING 319
SWIDTH 567 0
DWIDTH 9 0
BBX 10 13 0 -1
BITMAP
6A9000
3F8000
3F4550
2F5FE0
2F5FE0
2F5FE0
1F4FE0
1F4550
0F4000
0F8000
0FFC00
0BF800
056800
ENDCHAR
STARTCHAR ldot
ENCODING 320
SWIDTH 660 0
DWIDTH 11 0
BBX 11 13 0 -1
BITMAP
6AA400
2FD000
2FC000
1FC164
1F87FC
0F83FC
0B83FC
0B83FC
0B8140
0B9000
07FD00
07FC00
051800
ENDCHAR
STARTCHAR Lslash
ENCODING 321
SWIDTH 428 0
DWIDTH 7 0
BBX 8 13 0 -1
BITMAP
6A90
2F80
2F40
1F58
1FFC
6FFD
BFF4
7F40
1F40
0F80
0BFC
0BF8
0168
ENDCHAR
STARTCHAR lslash
ENCODING 322
SWIDTH 457 0
DWIDTH 7 0
BBX 8 13 0 -1
BITMAP
2AA4
2FD0
1FC0
1FD9
0FFE
2FFF
BFF4
3FC0
1B80
07D0
07FD
07FC
0118
ENDCHAR
STARTCHAR Nacute
ENCODING 323
SWIDTH 610 0
DWIDTH 10 0
BBX 10 19 0 -2
BITMAP
0000D0
0007E0
001FE0
002500
000000
2A5A40
7F9F80
2FDF40
2FEF00
1FFF00
1FFF00
1FFE00
0FFE00
0BBE00
0B7E00
0B7D00
0B6D00
066900
045400
ENDCHAR
STARTCHAR nacute
ENCODING 324
SWIDTH 664 0
DWIDTH 11 0
BBX 11 18 0 -1
BITMAP
0000A0
0002F4
000BE4
000900
000000
6A8AA4
3FCBE0
2FEBD0
2FEBC0
2FFFC0
1FFF80
1FFF80
1FFF40
0FBF40
0F7F00
0B7F00
0B2E00
0A2900
ENDCHAR
STARTCHAR Ncommaaccent
ENCODING 325
SWIDTH 610 0
DWIDTH 10 0
BBX 9 23 0 -11
BITMAP
2A5A40
7F9F80
2FDF40
2FEF00
1FFF00
1FFF00
1FFE00
0FFE00
0BBE00
0B7E00
0B7D00
0B6D00
066900
045400
000000
005400
01FD00
01FE00
01FD00
006D00
001D00
001D00
001400
ENDCHAR
STARTCHAR ncommaaccent
ENCODING 326
SWIDTH 664 0
DWIDTH 11 0
BBX 11 22 0 -10
BITMAP
6A8AA4
3FCBE0
2FEBD0
2FEBC0
2FFFC0
1FFF80
1FFF80
1FFF40
0FBF40
0F7F00
0B7F00
0B2E00
0A2900
000000
005500
00FF00
00FF00
00FF00
005F00
000E00
000E00
000500
ENDCHAR
STARTCHAR Ncaron
ENCODING 327
SWIDTH 610 0
DWIDTH 10 0
BBX 9 21 0 -2
BITMAP
090600
1F0F80
0B9F00
07FE00
03FC00
01A400
000000
2A5A40
7F9F80
2FDF40
2FEF00
1FFF00
1FFF00
1FFE00
0FFE00
0BBE00
0B7E00
0B7D00
0B6D00
066900
045400
ENDCHAR
STARTCHAR ncaron
ENCODING 328
SWIDTH 664 0
DWIDTH 11 0
BBX 11 20 0 -1
BITMAP
060180
0B87C0
03DB80
02FF40
01FE00
00A800
000000
6A8AA4
3FCBE0
2FEBD0
2FEBC0
2FFFC0
1FFF80
1FFF80
1FFF40
0FBF40
0F7F00
0B7F00
0B2E00
0A2900
ENDCHAR
STARTCHAR Omacron
ENCODING 332
SWIDTH 504 0
DWIDTH 8 0
BBX 8 17 0 -2
BITMAP
1AA4
3FF8
0550
0690
2FFC
7FFE
BFFE
7FFE
7EBE
3D7E
3D7E
3D7D
2E7C
2FB8
1FF4
02A0
0040
ENDCHAR
STARTCHAR omacron
ENCODING 333
SWIDTH 545 0
DWIDTH 9 0
BBX 9 16 0 -1
BITMAP
1A9800
2FFC00
055400
06A400
2FFE00
7FFF40
BFFF40
7FFF40
7F7F40
3E3F40
3E3F00
2E3E00
2E3D00
1FBD00
0BF800
016400
ENDCHAR
STARTCHAR Obreve
ENCODING 334
SWIDTH 504 0
DWIDTH 8 0
BBX 8 20 0 -2
BITMAP
1400
2D2D
1F7C
0BF8
0164
0000
0690
2FFC
7FFE
BFFE
7FFE
7EBE
3D7E
3D7E
3D7D
2E7C
2FB8
1FF4
02A0
0040
ENDCHAR
STARTCHAR obreve
ENCODING 335
SWIDTH 545 0
DWIDTH 9 0
BBX 9 19 0 -1
BITMAP
140000
1D1E00
0FBD00
0BFC00
016400
000000
06A400
2FFE00
7FFF40
BFFF40
7FFF40
7F7F40
3E3F40
3E3F00
2E3E00
2E3D00
1FBD00
0BF800
016400
ENDCHAR
STARTCHAR Ohungarumlaut
ENCODING 336
SWIDTH 504 0
DWIDTH 8 0
BBX 8 21 0 -2
BITMAP
0404
0E2E
2F3E
3C78
74A0
5040
0000
0690
2FFC
7FFE
BFFE
7FFE
7EBE
3D7E
3D7E
3D7D
2E7C
2FB8
1FF4
02A0
0040
ENDCHAR
STARTCHAR ohungarumlaut
ENCODING 337
SWIDTH 545 0
DWIDTH 9 0
BBX 9 20 0 -1
BITMAP
050400
0B5E40
1F6F00
2D3C00
387000
105000
000000
06A400
2FFE00
7FFF40
BFFF40
7FFF40
7F7F40
3E3F40
3E3F00
2E3E00
2E3D00
1FBD00
0BF800
016400
ENDCHAR
STARTCHAR OE
ENCODING 338
SWIDTH 789 0
DWIDTH 13 0
BBX 12 14 0 -2
BITMAP
06AAA9
2FFFFE
7FFFFD
BFFFFC
7FFFF8
7EBE64
3D7E50
3D7FE0
3D7FE0
2E7E00
2FBFF0
1FFBE0
02A250
014110
ENDCHAR
STARTCHAR oe
ENCODING 339
SWIDTH 778 0
DWIDTH 12 0
BBX 12 13 0 -1
BITMAP
06AAA5
2FFFFD
7FFFFC
BFFFF8
7FFFF8
7EBFB4
3D7E00
2D3FD0
2D3FD0
1E7E50
1FBE90
0BFFE0
016650
ENDCHAR
STARTCHAR Racute
ENCODING 340
SWIDTH 599 0
DWIDTH 10 0
BBX 10 18 0 -1
BITMAP
0001C0
0007D0
002FE0
002400
000000
1AA900
7FFF80
1FFFD0
0FFFD0
0FFFD0
0FCBC0
0BCBC0
07FF80
07FF40
03DF00
03CF40
03CF40
014640
ENDCHAR
STARTCHAR racute
ENCODING 341
SWIDTH 616 0
DWIDTH 10 0
BBX 10 18 0 -1
BITMAP
0000D0
0007E0
001FE0
002500
000000
5AA900
7FFFD0
1FFFE0
0FFFD0
0FFFD0
0BCBC0
0BCBC0
0BFF80
07FF40
07EE00
07DE00
07DE00
064B00
ENDCHAR
STARTCHAR Rcommaaccent
ENCODING 342
SWIDTH 599 0
DWIDTH 10 0
BBX 10 22 0 -10
BITMAP
1AA900
7FFF80
1FFFD0
0FFFD0
0FFFD0
0FCBC0
0BCBC0
07FF80
07FF40
03DF00
03CF40
03CF40
014640
000000
015400
02FC00
02FD00
02FC00
016C00
002C00
002C00
001400
ENDCHAR
STARTCHAR rcommaaccent
ENCODING 343
SWIDTH 616 0
DWIDTH 10 0
BBX 10 22 0 -10
BITMAP
5AA900
7FFFD0
1FFFE0
0FFFD0
0FFFD0
0BCBC0
0BCBC0
0BFF80
07FF40
07EE00
07DE00
07DE00
064B00
000000
005400
01FD00
01FD00
01FD00
016D00
001D00
002C00
001400
ENDCHAR
STARTCHAR Rcaron
ENCODING 344
SWIDTH 599 0
DWIDTH 10 0
BBX 10 20 0 -1
BITMAP
0A0240
0F4BC0
07DF40
03FF00
02FD00
00A800
000000
1AA900
7FFF80
1FFFD0
0FFFD0
0FFFD0
0FCBC0
0BCBC0
07FF80
07FF40
03DF00
03CF40
03CF40
014640
ENDCHAR
STARTCHAR rcaron
ENCODING 345
SWIDTH 616 0
DWIDTH 10 0
BBX 10 20 0 -1
BITMAP
0A0240
0F4B80
0BDF40
03FE00
02FD00
01A800
000000
5AA900
7FFFD0
1FFFE0
0FFFD0
0FFFD0
0BCBC0
0BCBC0
0BFF80
07FF40
07EE00
07DE00
07DE00
064B00
ENDCHAR
STARTCHAR Sacute
ENCODING 346
SWIDTH 504 0
DWIDTH 8 0
BBX 9 18 0 -1
BITMAP
000700
001F80
00BF80
009400
000000
06A000
2FFD00
3FFE00
7FFE00
BFFE00
BEBE00
7E5500
3FF400
0BFC00
157C00
3EBC00
1FF400
059000
ENDCHAR
STARTCHAR sacute
ENCODING 347
SWIDTH 481 0
DWIDTH 8 0
BBX 9 18 0 -1
BITMAP
000700
001F40
00BF80
009000
000000
06A000
2FF800
7FFD00
7FFD00
BFFC00
BEBC00
7E6800
3FE000
1BF400
05B400
2EB400
1FF000
0A9000
ENDCHAR
STARTCHAR Scircumflex
ENCODING 348
SWIDTH 504 0
DWIDTH 8 0
BBX 8 20 0 -1
BITMAP
02A0
07F4
0FFC
1E3D
280F
1005
0000
06A0
2FFD
3FFE
7FFE
BFFE
BEBE
7E55
3FF4
0BFC
157C
3EBC
1FF4
0590
ENDCHAR
STARTCHAR scircumflex
ENCODING 349
SWIDTH 481 0
DWIDTH 8 0
BBX 8 20 0 -1
BITMAP
06A0
0BF4
1FF8
2E7D
381E
2005
0000
06A0
2FF8
7FFD
7FFD
BFFC
BEBC
7E68
3FE0
1BF4
05B4
2EB4
1FF0
0A90
ENDCHAR
STARTCHAR Scedilla
ENCODING 350
SWIDTH 504 0
DWIDTH 8 0
BBX 8 18 0 -6
BITMAP
06A0
2FFD
3FFE
7FFE
BFFE
BEBE
7E55
3FF4
0BFC
157C
3EBC
1FF4
06E0
0180
02F4
0034
01B4
0050
ENDCHAR
STARTCHAR scedilla
ENCODING 351
SWIDTH 481 0
DWIDTH 8 0
BBX 8 18 0 -6
BITMAP
06A0
2FF8
7FFD
7FFD
BFFC
BEBC
7E68
3FE0
1BF4
05B4
2EB4
1FF0
0BD0
0340
03E0
00A0
02E0
0150
ENDCHAR
STARTCHAR Scaron
ENCODING 352
SWIDTH 503 0
DWIDTH 8 0
BBX 8 21 0 -1
BITMAP
781D
3D3E
2EBC
1FF4
0BF0
0550
0000
0000
06A0
2FFD
3FFE
7FFE
BFFE
BEBE
7E55
3FF4
0BFC
157C
3EBC
1FF4
0590
ENDCHAR
STARTCHAR scaron
ENCODING 353
SWIDTH 479 0
DWIDTH 8 0
BBX 8 21 0 -1
BITMAP
7418
7C3D
3DBC
1FF4
0FF0
0690
0000
0000
06A0
2FF8
7FFD
7FFD
BFFC
BEBC
7E68
3FE0
1BF4
05B4
3EB4
1FE0
0A90
ENDCHAR
STARTCHAR Tcommaaccent
ENCODING 354
SWIDTH 622 0
DWIDTH 10 0
BBX 9 19 1 -7
BITMAP
6AA500
FFFF40
BFFE00
7FFE00
7FFE00
7FE900
03D000
03E000
03D000
03D000
03D000
03D000
03D000
02C000
028000
02F000
007000
02F000
015000
ENDCHAR
STARTCHAR tcommaaccent
ENCODING 355
SWIDTH 683 0
DWIDTH 11 0
BBX 10 19 0 -7
BITMAP
1AFE90
7FFFF0
2FFFD0
1FFFD0
0FFFD0
0EFED0
00BC00
007D00
007D00
007C00
007C00
003C00
003C00
003C00
003400
003E00
000A00
002E00
001500
ENDCHAR
STARTCHAR Tcaron
ENCODING 356
SWIDTH 622 0
DWIDTH 10 0
BBX 9 21 1 -2
BITMAP
641800
7C3D00
3EBC00
1FF400
0FF000
069000
000000
6AA500
FFFF40
BFFE00
7FFE00
7FFE00
7FE900
03D000
03E000
03D000
03D000
03D000
03D000
03D000
014000
ENDCHAR
STARTCHAR tcaron
ENCODING 357
SWIDTH 622 0
DWIDTH 10 0
BBX 9 21 1 -2
BITMAP
280900
3D2E00
2F7D00
0FF800
0BF400
02A000
000000
6AA500
FFFF40
BFFE00
7FFE00
7FFE00
7FE900
03D000
03E000
03D000
03D000
03D000
03D000
03D000
014000
ENDCHAR
STARTCHAR Utilde
ENCODING 360
SWIDTH 637 0
DWIDTH 10 0
BBX 10 18 0 -1
BITMAP
000400
1D2E00
2FFF40
0BDA00
000000
6A4A40
2F4FD0
2F4FC0
2F8F80
1F9F40
1F9F40
0F5F00
0F5F00
0F9F00
0FAE00
0BFE00
07A800
010400
ENDCHAR
STARTCHAR utilde
ENCODING 361
SWIDTH 708 0
DWIDTH 11 0
BBX 11 16 0 0
BITMAP
0B1F40
0FFFC0
07E740
000000
5A8250
2FC7FC
2FC7F4
1FD7F0
0FD7E0
0FD7D0
0BC7D0
0BCBD0
0BDBC0
07DBC0
03FF80
01DA40
ENDCHAR
STARTCHAR Umacron
ENCODING 362
SWIDTH 637 0
DWIDTH 10 0
BBX 10 16 0 -1
BITMAP
06A900
0BFE00
015500
6A4A40
2F4FD0
2F4FC0
2F8F80
1F9F40
1F9F40
0F5F00
0F5F00
0F9F00
0FAE00
0BFE00
07A800
010400
ENDCHAR
STARTCHAR umacron
ENCODING 363
SWIDTH 708 0
DWIDTH 11 0
BBX 11 15 0 0
BITMAP
029A40
03FF40
005500
5A8250
2FC7FC
2FC7F4
1FD7F0
0FD7E0
0FD7D0
0BC7D0
0BCBD0
0BDBC0
07DBC0
03FF80
01DA40
ENDCHAR
STARTCHAR Ubreve
ENCODING 364
SWIDTH 637 0
DWIDTH 10 0
BBX 10 19 0 -1
BITMAP
014000
078780
03EF40
02FF00
004900
000000
6A4A40
2F4FD0
2F4FC0
2F8F80
1F9F40
1F9F40
0F5F00
0F5F00
0F9F00
0FAE00
0BFE00
07A800
010400
ENDCHAR
STARTCHAR ubreve
ENCODING 365
SWIDTH 708 0
DWIDTH 11 0
BBX 11 18 0 0
BITMAP
014000
02D2D0
01EBC0
00BF80
001640
000000
5A8250
2FC7FC
2FC7F4
1FD7F0
0FD7E0
0FD7D0
0BC7D0
0BCBD0
0BDBC0
07DBC0
03FF80
01DA40
ENDCHAR
STARTCHAR Uring
ENCODING 366
SWIDTH 637 0
DWIDTH 10 0
BBX 10 18 0 -1
BITMAP
01F800
029D00
028900
01F800
001000
6A4A40
2F4FD0
2F4FC0
2F8F80
1F9F40
1F9F40
0F5F00
0F5F00
0F9F00
0FAE00
0BFE00
07A800
010400
ENDCHAR
STARTCHAR uring
ENCODING 367
SWIDTH 708 0
DWIDTH 11 0
BBX 11 17 0 0
BITMAP
00BE00
00D740
00D300
00BD00
000400
5A8250
2FC7FC
2FC7F4
1FD7F0
0FD7E0
0FD7D0
0BC7D0
0BCBD0
0BDBC0
07DBC0
03FF80
01DA40
ENDCHAR
STARTCHAR Uhungarumlaut
ENCODING 368
SWIDTH 637 0
DWIDTH 10 0
BBX 10 20 0 -1
BITMAP
010100
03D790
07DB80
0B4F00
0D1C00
041400
000000
6A4A40
2F4FD0
2F4FC0
2F8F80
1F9F40
1F9F40
0F5F00
0F5F00
0F9F00
0FAE00
0BFE00
07A800
010400
ENDCHAR
STARTCHAR uhungarumlaut
ENCODING 369
SWIDTH 708 0
DWIDTH 11 0
BBX 11 19 0 0
BITMAP
004100
01E2E0
02E3D0
038740
0B0E00
040400
000000
5A8250
2FC7FC
2FC7F4
1FD7F0
0FD7E0
0FD7D0
0BC7D0
0BCBD0
0BDBC0
07DBC0
03FF80
01DA40
ENDCHAR
STARTCHAR Uogonek
ENCODING 370
SWIDTH 637 0
DWIDTH 10 0
BBX 10 17 0 -5
BITMAP
6A4A40
2F4FD0
2F4FC0
2F8F80
1F9F40
1F9F40
0F5F00
0F5F00
0F9F00
0FAE00
0BFE00
07BC00
017800
007400
007800
003F80
001F80
ENDCHAR
STARTCHAR uogonek
ENCODING 371
SWIDTH 662 0
DWIDTH 11 0
BBX 11 17 0 -5
BITMAP
5A8250
2FC7FC
2FC7F4
1FC7F0
0FD7E0
0FD7D0
0BC7D0
0BCBD0
0BDBC0
07DB80
03FF80
01FE40
007400
00B000
00B400
007F40
002F40
ENDCHAR
STARTCHAR Wcircumflex
ENCODING 372
SWIDTH 777 0
DWIDTH 12 0
BBX 12 19 0 0
BITMAP
006900
00FF00
01FF80
02D7C0
0781E0
010040
000000
065C69
7F6DBE
1FAEF8
0BBFF4
0BFFE0
07FFD0
02FFD0
01FFC0
00FBC0
00FB80
00A740
006700
ENDCHAR
STARTCHAR wcircumflex
ENCODING 373
SWIDTH 704 0
DWIDTH 11 0
BBX 11 19 0 0
BITMAP
00A800
01FE00
02FF00
07CB80
0B03C0
050040
000000
152550
7F39F8
1F7DF0
0FBEE0
0BFFD0
07FFC0
03FFC0
02FF80
01FB80
00FB80
00EB40
005740
ENDCHAR
STARTCHAR Ycircumflex
ENCODING 374
SWIDTH 688 0
DWIDTH 11 0
BBX 11 20 0 -1
BITMAP
00A800
01FE00
03FF00
078B80
0B03C0
040140
000000
6A8250
1FD7F8
07EBD0
01FF80
00FF00
007F00
003F00
002E00
002E00
001E00
001E00
001E00
000400
ENDCHAR
STARTCHAR ycircumflex
ENCODING 375
SWIDTH 604 0
DWIDTH 10 0
BBX 8 20 1 -1
BITMAP
0A90
1FE0
2FF4
3CB8
B42D
5004
0000
A824
BD7E
1EB8
0FF0
0BE0
07E0
03E0
03D0
02D0
02D0
02D0
02C0
0280
ENDCHAR
STARTCHAR Ydieresis
ENCODING 376
SWIDTH 688 0
DWIDTH 11 0
BBX 11 18 0 -1
BITMAP
094690
0FCBE0
1FCBE0
0FCBE0
010000
6A8250
1FD7F8
07EBD0
01FF80
00FF00
007F00
003F00
002E00
002E00
001E00
001E00
001E00
000400
ENDCHAR
STARTCHAR Zacute
ENCODING 377
SWIDTH 695 0
DWIDTH 11 0
BBX 11 18 0 -1
BITMAP
000070
0001F8
0007F8
000940
000000
1AAA50
7FFFF8
2FFFF0
1FFFE0
0FFFC0
0E7F40
047D00
00F800
00F000
02E400
03FE00
07FD00
000400
ENDCHAR
STARTCHAR zacute
ENCODING 378
SWIDTH 622 0
DWIDTH 10 0
BBX 11 18 0 -1
BITMAP
0000D0
0007E0
001FE4
001500
000000
1BBA40
7FFFD0
2FFF80
1FFF40
0FFF40
0ABE00
04B800
00F400
01E000
01D000
02FD00
03FD00
011800
ENDCHAR
STARTCHAR Zdotaccent
ENCODING 379
SWIDTH 695 0
DWIDTH 11 0
BBX 11 19 0 -1
BITMAP
005900
01FF00
00FF00
00FF00
00FF00
005000
1AAA50
7FFFF8
2FFFF0
1FFFE0
0FFFC0
0E7F40
047D00
00F800
00F000
02E400
03FE00
07FD00
000400
ENDCHAR
STARTCHAR zdotaccent
ENCODING 380
SWIDTH 622 0
DWIDTH 10 0
BBX 10 19 0 -1
BITMAP
016400
07FC00
03FC00
03FC00
03FC00
014000
1BBA40
7FFFD0
2FFF80
1FFF40
0FFF40
0ABE00
04B800
00F400
01E000
01D000
02FD00
03FD00
011800
ENDCHAR
STARTCHAR Zcaron
ENCODING 381
SWIDTH 693 0
DWIDTH 11 0
BBX 11 21 0 -1
BITMAP
074280
07C7C0
03DF80
01FF00
00FE00
005400
000000
000000
1AAA50
7FFFF8
2FFFF0
1FFFE0
0FFFC0
0E7F40
047D00
00F800
00F000
02E400
03FE00
07FD00
000400
ENDCHAR
STARTCHAR zcaron
ENCODING 382
SWIDTH 621 0
DWIDTH 10 0
BBX 10 21 0 -1
BITMAP
1D0740
0F0F40
0BAE00
07FD00
02F800
015400
000000
000000
1BBA40
7FFFD0
2FFF80
1FFF40
0FFF40
0ABE00
04B800
00F400
01E000
01D000
03FD00
03FD00
011800
ENDCHAR
STARTCHAR DZ
ENCODING 497
SWIDTH 194 0
DWIDTH 3 0
BBX 1 1 0 0
BITMAP
00
ENDCHAR
STARTCHAR Dz
ENCODING 498
SWIDTH 194 0
DWIDTH 3 0
BBX 1 1 0 0
BITMAP
00
ENDCHAR
STARTCHAR dotlessj
ENCODING 567
SWIDTH 458 0
DWIDTH 7 0
BBX 7 13 0 -1
BITMAP
0A94
0BF4
07F4
03F0
03F0
03F0
03E0
03E0
B3E0
F7E0
FFD0
7FC0
0140
ENDCHAR
STARTCHAR circumflex
ENCODING 710
SWIDTH 528 0
DWIDTH 8 0
BBX 7 6 1 11
BITMAP
1A80
2FD0
7FE0
B5F4
E078
4014
ENDCHAR
STARTCHAR caron
ENCODING 711
SWIDTH 486 0
DWIDTH 8 0
BBX 8 6 0 11
BITMAP
7418
7C3D
3DBC
2FF4
0FE0
0690
ENDCHAR
STARTCHAR breve
ENCODING 728
SWIDTH 464 0
DWIDTH 7 0
BBX 7 5 0 -1
BITMAP
1400
7878
3EB4
1FF0
0490
ENDCHAR
STARTCHAR dotaccent
ENCODING 729
SWIDTH 388 0
DWIDTH 6 0
BBX 5 6 1 3
BITMAP
5900
FF00
FF40
BF40
BF00
5000
ENDCHAR
STARTCHAR ring
ENCODING 730
SWIDTH 370 0
DWIDTH 6 0
BBX 4 5 1 4
BITMAP
BE
D7
C7
BD
14
ENDCHAR
STARTCHAR ogonek
ENCODING 731
SWIDTH 360 0
DWIDTH 6 0
BBX 4 6 1 0
BITMAP
50
E0
E0
E0
FF
6F
ENDCHAR
STARTCHAR tilde
ENCODING 732
SWIDTH 535 0
DWIDTH 9 0
BBX 8 3 0 -1
BITMAP
287D
7FFE
1FAD
ENDCHAR
STARTCHAR hungarumlaut
ENCODING 733
SWIDTH 554 0
DWIDTH 9 0
BBX 9 6 0 11
BITMAP
040400
0F5E40
1F6E00
2D3C00
747000
105000
ENDCHAR
STARTCHAR dotaccentcmb
ENCODING 775
SWIDTH 396 0
DWIDTH 6 0
BBX 5 5 1 6
BITMAP
AF40
FF40
BF40
BF40
AA00
ENDCHAR
STARTCHAR uni030F
ENCODING 783
SWIDTH 549 0
DWIDTH 9 0
BBX 8 6 0 11
BITMAP
0414
6C78
3D7C
1F2E
074B
0101
ENDCHAR
STARTCHAR uni0311
ENCODING 785
SWIDTH 490 0
DWIDTH 8 0
BBX 6 4 1 6
BITMAP
2F80
BFD0
B5E0
E0A0
ENDCHAR
STARTCHAR uni0326
ENCODING 806
SWIDTH 360 0
DWIDTH 6 0
BBX 4 8 1 -2
BITMAP
55
FF
FF
FF
5F
0E
0E
05
ENDCHAR
STARTCHAR endash
ENCODING 8211
SWIDTH 478 0
DWIDTH 8 0
BBX 6 4 1 4
BITMAP
AA90
FFD0
FFD0
1540
ENDCHAR
STARTCHAR emdash
ENCODING 8212
SWIDTH 567 0
DWIDTH 9 0
BBX 7 4 1 4
BITMAP
AAA8
FFFC
FFF8
1454
ENDCHAR
STARTCHAR quoteleft
ENCODING 8216
SWIDTH 373 0
DWIDTH 6 0
BBX 4 8 1 4
BITMAP
60
B0
E0
FA
FF
FF
FF
FF
ENDCHAR
STARTCHAR quoteright
ENCODING 8217
SWIDTH 369 0
DWIDTH 6 0
BBX 5 8 0 4
BITMAP
2A80
7FC0
7FC0
7FC0
7FC0
0280
0380
0380
ENDCHAR
STARTCHAR quotesinglbase
ENCODING 8218
SWIDTH 369 0
DWIDTH 6 0
BBX 5 8 0 4
BITMAP
2A80
7FC0
7FC0
7FC0
7FC0
0280
0380
0380
ENDCHAR
STARTCHAR quotedblleft
ENCODING 8220
SWIDTH 687 0
DWIDTH 11 0
BBX 9 8 1 4
BITMAP
601800
B02C00
E03800
FA3E80
FF3FC0
FF3FC0
FF3FC0
FF3FC0
ENDCHAR
STARTCHAR quotedblright
ENCODING 8221
SWIDTH 677 0
DWIDTH 11 0
BBX 10 8 0 4
BITMAP
2A4A90
7F8FE0
7F8FF0
7F8FE0
7F8FE0
0380E0
0340E0
0340D0
ENDCHAR
STARTCHAR quotedblbase
ENCODING 8222
SWIDTH 697 0
DWIDTH 11 0
BBX 11 8 0 -5
BITMAP
3E8BA4
3FCBF4
7FCBF4
7FCFF4
2BCAF4
028074
0380B0
0340A0
ENDCHAR
STARTCHAR ellipsis
ENCODING 8230
SWIDTH 1462 0
DWIDTH 23 0
BBX 22 6 1 0
BITMAP
59001A401690
FF003F801FE0
FF003F801FE0
BF003F801FE0
BE003F800FE0
400010000400
ENDCHAR
STARTCHAR guilsinglleft
ENCODING 8249
SWIDTH 459 0
DWIDTH 7 0
BBX 7 9 0 1
BITMAP
06A8
0BF0
1FD0
7F80
7F00
3F80
1FD0
07F4
01B8
ENDCHAR
STARTCHAR guilsinglright
ENCODING 8250
SWIDTH 432 0
DWIDTH 7 0
BBX 7 9 0 1
BITMAP
6B40
2F80
0FD0
07F0
03F4
07F0
0FC0
7F80
6A00
ENDCHAR
STARTCHAR fraction
ENCODING 8260
SWIDTH 371 0
DWIDTH 6 0
BBX 6 13 0 -1
BITMAP
6A90
7FD0
1FC0
1FC0
1F80
1F80
1F40
1F80
0F40
0F40
0B40
0B00
0100
ENDCHAR
STARTCHAR Euro
ENCODING 8364
SWIDTH 587 0
DWIDTH 9 0
BBX 9 15 0 -3
BITMAP
01B900
0BFF40
0FFF80
1FFF80
1FFF80
0FEF80
5FDF80
6F8000
6FD000
0B9F00
07EE00
03FD00
00A400
005000
005000
ENDCHAR
STARTCHAR trademark
ENCODING 8482
SWIDTH 785 0
DWIDTH 13 0
BBX 12 8 0 4
BITMAP
6F9BAE
7FC7BE
7FC7FD
2F47FD
0B03FD
0A03AD
0A02AC
0A0100
ENDCHAR
STARTCHAR minus
ENCODING 8722
SWIDTH 478 0
DWIDTH 8 0
BBX 6 4 1 4
BITMAP
AA90
FFD0
FFD0
1540
ENDCHAR
STARTCHAR commaaccent
ENCODING 63171
SWIDTH 360 0
DWIDTH 6 0
BBX 5 9 0 -3
BITMAP
1540
3FC0
7FC0
7FC0
7FC0
17C0
0380
0380
0100
ENDCHAR
STARTCHAR .notdef
ENCODING -1
SWIDTH 365 0
DWIDTH 6 0
BBX 5 11 0 0
BITMAP
6A40
4080
4080
4080
4080
4080
4080
4080
4080
4080
6A80
ENDCHAR
STARTCHAR .null
ENCODING -1
SWIDTH 0 0
DWIDTH 0 0
BBX 1 1 0 0
BITMAP
00
ENDCHAR
STARTCHAR nonmarkingreturn
ENCODING -1
SWIDTH 333 0
DWIDTH 5 0
BBX 1 1 0 0
BITMAP
00
ENDCHAR
ENDFONT
